ply
format ascii 1.0
comment PCL generated
element vertex 127
property float x
property float y
property float z
property uchar red
property uchar green
property uchar blue
property uchar alpha
element camera 1
property float view_px
property float view_py
property float view_pz
property float x_axisx
property float x_axisy
property float x_axisz
property float y_axisx
property float y_axisy
property float y_axisz
property float z_axisx
property float z_axisy
property float z_axisz
property float focal
property float scalex
property float scaley
property float centerx
property float centery
property int viewportx
property int viewporty
property float k1
property float k2
end_header
0.039975241 -0.52999431 1.3540001 166 86 40 255
0.042397145 -0.52803719 1.3490001 166 86 40 255
0.044966672 -0.52803719 1.3490001 166 86 40 255
0.047536191 -0.52803719 1.3490001 166 86 40 255
0.021840954 -0.52546763 1.3490001 166 86 40 255
0.024410479 -0.52546763 1.3490001 166 86 40 255
0.02965905 -0.52741522 1.3540001 166 86 40 255
0.032238096 -0.52741522 1.3540001 166 86 40 255
0.034817144 -0.52741522 1.3540001 166 86 40 255
0.037258096 -0.52546763 1.3490001 166 86 40 255
0.039827622 -0.52546763 1.3490001 166 86 40 255
0.042397145 -0.52546763 1.3490001 166 86 40 255
0.044966672 -0.52546763 1.3490001 166 86 40 255
0.047536191 -0.52546763 1.3490001 166 86 40 255
0.055244766 -0.52546763 1.3490001 166 86 40 255
0.057814289 -0.52546763 1.3490001 166 86 40 255
0.065522857 -0.52546763 1.3490001 166 86 40 255
0.068092383 -0.52546763 1.3490001 166 86 40 255
0.07066191 -0.52546763 1.3490001 166 86 40 255
0.073502868 -0.52741522 1.3540001 166 86 40 255
0.076081902 -0.52741522 1.3540001 166 86 40 255
0.078660958 -0.52741522 1.3540001 166 86 40 255
0.081239998 -0.52741522 1.3540001 166 86 40 255
0.083819054 -0.52741522 1.3540001 166 86 40 255
0.021840954 -0.52289814 1.3490001 166 86 40 255
0.024410479 -0.52289814 1.3490001 166 86 40 255
0.026980001 -0.52289814 1.3490001 166 86 40 255
0.029549526 -0.52289814 1.3490001 166 86 40 255
0.032119051 -0.52289814 1.3490001 166 86 40 255
0.034817144 -0.52483624 1.3540001 166 86 40 255
0.037258096 -0.52289814 1.3490001 166 86 40 255
0.039827622 -0.52289814 1.3490001 166 86 40 255
0.042397145 -0.52289814 1.3490001 166 86 40 255
0.044966672 -0.52289814 1.3490001 166 86 40 255
0.047536191 -0.52289814 1.3490001 166 86 40 255
0.065522857 -0.52289814 1.3490001 166 86 40 255
0.068092383 -0.52289814 1.3490001 166 86 40 255
0.07066191 -0.52289814 1.3490001 166 86 40 255
0.073231436 -0.52289814 1.3490001 166 86 40 255
0.075800955 -0.52289814 1.3490001 166 86 40 255
0.078660958 -0.52483624 1.3540001 166 86 40 255
0.081239998 -0.52483624 1.3540001 166 86 40 255
0.083819054 -0.52483624 1.3540001 166 86 40 255
0.086398095 -0.52483624 1.3540001 166 86 40 255
0.08864858 -0.52289814 1.3490001 166 86 40 255
0.091218099 -0.52289814 1.3490001 166 86 40 255
0.021840954 -0.52032858 1.3490001 166 86 40 255
0.024410479 -0.52032858 1.3490001 166 86 40 255
0.026980001 -0.52032858 1.3490001 166 86 40 255
0.029549526 -0.52032858 1.3490001 166 86 40 255
0.032119051 -0.52032858 1.3490001 166 86 40 255
0.034688573 -0.52032858 1.3490001 166 86 40 255
0.037258096 -0.52032858 1.3490001 166 86 40 255
0.039827622 -0.52032858 1.3490001 166 86 40 255
0.042397145 -0.52032858 1.3490001 166 86 40 255
0.044966672 -0.52032858 1.3490001 166 86 40 255
0.047536191 -0.52032858 1.3490001 166 86 40 255
0.065522857 -0.52032858 1.3490001 166 86 40 255
0.068092383 -0.52032858 1.3490001 166 86 40 255
0.07066191 -0.52032858 1.3490001 166 86 40 255
0.073231436 -0.52032858 1.3490001 166 86 40 255
0.075800955 -0.52032858 1.3490001 166 86 40 255
0.078660958 -0.52225721 1.3540001 166 86 40 255
0.080940008 -0.52032858 1.3490001 166 86 40 255
0.083509527 -0.52032858 1.3490001 166 86 40 255
0.086079046 -0.52032858 1.3490001 166 86 40 255
0.08864858 -0.52032858 1.3490001 166 86 40 255
0.091218099 -0.52032858 1.3490001 166 86 40 255
0.026980001 -0.51775908 1.3490001 166 86 40 255
0.029549526 -0.51775908 1.3490001 166 86 40 255
0.032119051 -0.51775908 1.3490001 166 86 40 255
0.034688573 -0.51775908 1.3490001 166 86 40 255
0.037258096 -0.51775908 1.3490001 166 86 40 255
0.039827622 -0.51775908 1.3490001 166 86 40 255
0.042397145 -0.51775908 1.3490001 166 86 40 255
0.044966672 -0.51775908 1.3490001 166 86 40 255
0.047536191 -0.51775908 1.3490001 166 86 40 255
0.050105717 -0.51775908 1.3490001 166 86 40 255
0.052675243 -0.51775908 1.3490001 166 86 40 255
0.055244766 -0.51775908 1.3490001 166 86 40 255
0.057814289 -0.51775908 1.3490001 166 86 40 255
0.060383812 -0.51775908 1.3490001 166 86 40 255
0.062953338 -0.51775908 1.3490001 166 86 40 255
0.065522857 -0.51775908 1.3490001 166 86 40 255
0.068092383 -0.51775908 1.3490001 166 86 40 255
0.07066191 -0.51775908 1.3490001 166 86 40 255
0.073231436 -0.51775908 1.3490001 166 86 40 255
0.075800955 -0.51775908 1.3490001 166 86 40 255
0.078370482 -0.51775908 1.3490001 166 86 40 255
0.080940008 -0.51775908 1.3490001 166 86 40 255
0.083509527 -0.51775908 1.3490001 166 86 40 255
0.086079046 -0.51775908 1.3490001 166 86 40 255
0.08864858 -0.51775908 1.3490001 166 86 40 255
0.091218099 -0.51775908 1.3490001 166 86 40 255
0.029549526 -0.51518953 1.3490001 166 86 40 255
0.032119051 -0.51518953 1.3490001 166 86 40 255
0.034688573 -0.51518953 1.3490001 166 86 40 255
0.037258096 -0.51518953 1.3490001 166 86 40 255
0.039827622 -0.51518953 1.3490001 166 86 40 255
0.042397145 -0.51518953 1.3490001 166 86 40 255
0.068092383 -0.51518953 1.3490001 166 86 40 255
0.07066191 -0.51518953 1.3490001 166 86 40 255
0.073231436 -0.51518953 1.3490001 166 86 40 255
0.075800955 -0.51518953 1.3490001 166 86 40 255
0.078370482 -0.51518953 1.3490001 166 86 40 255
0.080940008 -0.51518953 1.3490001 166 86 40 255
0.083509527 -0.51518953 1.3490001 166 86 40 255
0.086079046 -0.51518953 1.3490001 166 86 40 255
0.08864858 -0.51518953 1.3490001 166 86 40 255
0.091218099 -0.51518953 1.3490001 166 86 40 255
0.029549526 -0.51262003 1.3490001 166 86 40 255
0.037258096 -0.51262003 1.3490001 166 86 40 255
0.039827622 -0.51262003 1.3490001 166 86 40 255
0.075800955 -0.51262003 1.3490001 166 86 40 255
0.078370482 -0.51262003 1.3490001 166 86 40 255
0.086079046 -0.51262003 1.3490001 166 86 40 255
0.08864858 -0.51262003 1.3490001 166 86 40 255
0.026860001 -0.50778192 1.3430001 166 86 40 255
0.078370482 -0.51005054 1.3490001 166 86 40 255
0.029418096 -0.50522387 1.3430001 166 86 40 255
0.031976189 -0.50522387 1.3430001 166 86 40 255
0.034534287 -0.50522387 1.3430001 166 86 40 255
0.037092384 -0.50522387 1.3430001 166 86 40 255
0.039650477 -0.50522387 1.3430001 166 86 40 255
0.029418096 -0.5026657 1.3430001 166 86 40 255
0.037092384 -0.5026657 1.3430001 166 86 40 255
0.039650477 -0.5026657 1.3430001 166 86 40 255
0 0 0 1 0 0 0 1 0 0 0 1 0 0 0 0 0 127 1 0 0
