ply
format ascii 1.0
comment PCL generated
element vertex 104
property float x
property float y
property float z
property uchar red
property uchar green
property uchar blue
property uchar alpha
element camera 1
property float view_px
property float view_py
property float view_pz
property float x_axisx
property float x_axisy
property float x_axisz
property float y_axisx
property float y_axisy
property float y_axisz
property float z_axisx
property float z_axisy
property float z_axisz
property float focal
property float scalex
property float scaley
property float centerx
property float centery
property int viewportx
property int viewporty
property float k1
property float k2
end_header
0.11003429 -0.25421715 1.3280001 0 255 0 255
0.11256382 -0.25421715 1.3280001 0 255 0 255
0.11509334 -0.25421715 1.3280001 0 255 0 255
0.11003429 -0.25168762 1.3280001 0 255 0 255
0.11256382 -0.25168762 1.3280001 0 255 0 255
0.11509334 -0.25168762 1.3280001 0 255 0 255
0.12774095 -0.25168762 1.3280001 0 255 0 255
0.13027048 -0.25168762 1.3280001 0 255 0 255
0.1328 -0.25168762 1.3280001 0 255 0 255
0.13532953 -0.25168762 1.3280001 0 255 0 255
0.11003429 -0.24915811 1.3280001 0 255 0 255
0.11256382 -0.24915811 1.3280001 0 255 0 255
0.11509334 -0.24915811 1.3280001 0 255 0 255
0.12774095 -0.24915811 1.3280001 0 255 0 255
0.13027048 -0.24915811 1.3280001 0 255 0 255
0.1328 -0.24915811 1.3280001 0 255 0 255
0.13532953 -0.24915811 1.3280001 0 255 0 255
0.13785906 -0.24915811 1.3280001 0 255 0 255
0.14038858 -0.24915811 1.3280001 0 255 0 255
0.14291811 -0.24915811 1.3280001 0 255 0 255
0.10790953 -0.24755713 1.3330001 0 255 0 255
0.11003429 -0.24662858 1.3280001 0 255 0 255
0.11256382 -0.24662858 1.3280001 0 255 0 255
0.11509334 -0.24662858 1.3280001 0 255 0 255
0.11762286 -0.24662858 1.3280001 0 255 0 255
0.12774095 -0.24662858 1.3280001 0 255 0 255
0.13027048 -0.24662858 1.3280001 0 255 0 255
0.1328 -0.24662858 1.3280001 0 255 0 255
0.13532953 -0.24662858 1.3280001 0 255 0 255
0.13785906 -0.24662858 1.3280001 0 255 0 255
0.14038858 -0.24662858 1.3280001 0 255 0 255
0.14291811 -0.24662858 1.3280001 0 255 0 255
0.14544761 -0.24662858 1.3280001 0 255 0 255
0.14797714 -0.24662858 1.3280001 0 255 0 255
0.10790953 -0.24501811 1.3330001 0 255 0 255
0.11003429 -0.24409907 1.3280001 0 255 0 255
0.11256382 -0.24409907 1.3280001 0 255 0 255
0.11509334 -0.24409907 1.3280001 0 255 0 255
0.13027048 -0.24409907 1.3280001 0 255 0 255
0.1328 -0.24409907 1.3280001 0 255 0 255
0.13532953 -0.24409907 1.3280001 0 255 0 255
0.13785906 -0.24409907 1.3280001 0 255 0 255
0.14038858 -0.24409907 1.3280001 0 255 0 255
0.14291811 -0.24409907 1.3280001 0 255 0 255
0.14544761 -0.24409907 1.3280001 0 255 0 255
0.14797714 -0.24409907 1.3280001 0 255 0 255
0.15050668 -0.24409907 1.3280001 0 255 0 255
0.11044858 -0.24247906 1.3330001 0 255 0 255
0.11256382 -0.24156953 1.3280001 0 255 0 255
0.11509334 -0.24156953 1.3280001 0 255 0 255
0.12268192 -0.24156953 1.3280001 0 255 0 255
0.13027048 -0.24156953 1.3280001 0 255 0 255
0.1328 -0.24156953 1.3280001 0 255 0 255
0.13532953 -0.24156953 1.3280001 0 255 0 255
0.13785906 -0.24156953 1.3280001 0 255 0 255
0.14038858 -0.24156953 1.3280001 0 255 0 255
0.14291811 -0.24156953 1.3280001 0 255 0 255
0.14544761 -0.24156953 1.3280001 0 255 0 255
0.14797714 -0.24156953 1.3280001 0 255 0 255
0.11298762 -0.23994 1.3330001 0 255 0 255
0.11509334 -0.23904002 1.3280001 0 255 0 255
0.11762286 -0.23904002 1.3280001 0 255 0 255
0.12015238 -0.23904002 1.3280001 0 255 0 255
0.12268192 -0.23904002 1.3280001 0 255 0 255
0.12521143 -0.23904002 1.3280001 0 255 0 255
0.12774095 -0.23904002 1.3280001 0 255 0 255
0.13027048 -0.23904002 1.3280001 0 255 0 255
0.1328 -0.23904002 1.3280001 0 255 0 255
0.13532953 -0.23904002 1.3280001 0 255 0 255
0.13785906 -0.23904002 1.3280001 0 255 0 255
0.14038858 -0.23904002 1.3280001 0 255 0 255
0.14291811 -0.23904002 1.3280001 0 255 0 255
0.14544761 -0.23904002 1.3280001 0 255 0 255
0.14797714 -0.23904002 1.3280001 0 255 0 255
0.11298762 -0.23740096 1.3330001 0 255 0 255
0.11509334 -0.23651049 1.3280001 0 255 0 255
0.11762286 -0.23651049 1.3280001 0 255 0 255
0.12015238 -0.23651049 1.3280001 0 255 0 255
0.12268192 -0.23651049 1.3280001 0 255 0 255
0.12521143 -0.23651049 1.3280001 0 255 0 255
0.12774095 -0.23651049 1.3280001 0 255 0 255
0.13027048 -0.23651049 1.3280001 0 255 0 255
0.1328 -0.23651049 1.3280001 0 255 0 255
0.13532953 -0.23651049 1.3280001 0 255 0 255
0.13785906 -0.23651049 1.3280001 0 255 0 255
0.14038858 -0.23651049 1.3280001 0 255 0 255
0.14291811 -0.23651049 1.3280001 0 255 0 255
0.14544761 -0.23651049 1.3280001 0 255 0 255
0.11806572 -0.23486191 1.3330001 0 255 0 255
0.12015238 -0.23398095 1.3280001 0 255 0 255
0.12268192 -0.23398095 1.3280001 0 255 0 255
0.12521143 -0.23398095 1.3280001 0 255 0 255
0.12774095 -0.23398095 1.3280001 0 255 0 255
0.13785906 -0.23398095 1.3280001 0 255 0 255
0.14038858 -0.23398095 1.3280001 0 255 0 255
0.14291811 -0.23398095 1.3280001 0 255 0 255
0.14544761 -0.23398095 1.3280001 0 255 0 255
0.12015238 -0.23145144 1.3280001 0 255 0 255
0.12268192 -0.23145144 1.3280001 0 255 0 255
0.12521143 -0.23145144 1.3280001 0 255 0 255
0.12774095 -0.23145144 1.3280001 0 255 0 255
0.12015238 -0.22892192 1.3280001 0 255 0 255
0.12268192 -0.22892192 1.3280001 0 255 0 255
0.12521143 -0.22892192 1.3280001 0 255 0 255
0 0 0 1 0 0 0 1 0 0 0 1 0 0 0 0 0 104 1 0 0
