ply
format ascii 1.0
comment PCL generated
element vertex 145
property float x
property float y
property float z
property uchar red
property uchar green
property uchar blue
property uchar alpha
element camera 1
property float view_px
property float view_py
property float view_pz
property float x_axisx
property float x_axisy
property float x_axisz
property float y_axisx
property float y_axisy
property float y_axisz
property float z_axisx
property float z_axisy
property float z_axisz
property float focal
property float scalex
property float scaley
property float centerx
property float centery
property int viewportx
property int viewporty
property float k1
property float k2
end_header
-0.24273142 0.0084533338 1.268 0 0 255 255
-0.24031618 0.0084533338 1.268 0 0 255 255
-0.23790096 0.0084533338 1.268 0 0 255 255
-0.24514666 0.010868571 1.268 0 0 255 255
-0.24273142 0.010868571 1.268 0 0 255 255
-0.24031618 0.010868571 1.268 0 0 255 255
-0.23790096 0.010868571 1.268 0 0 255 255
-0.2354857 0.010868571 1.268 0 0 255 255
-0.23307048 0.010868571 1.268 0 0 255 255
-0.23065524 0.010868571 1.268 0 0 255 255
-0.2475619 0.01328381 1.268 0 0 255 255
-0.24514666 0.01328381 1.268 0 0 255 255
-0.24273142 0.01328381 1.268 0 0 255 255
-0.24031618 0.01328381 1.268 0 0 255 255
-0.23790096 0.01328381 1.268 0 0 255 255
-0.2354857 0.01328381 1.268 0 0 255 255
-0.23307048 0.01328381 1.268 0 0 255 255
-0.23065524 0.01328381 1.268 0 0 255 255
-0.22824 0.01328381 1.268 0 0 255 255
-0.22582476 0.01328381 1.268 0 0 255 255
-0.22340952 0.01328381 1.268 0 0 255 255
-0.24514666 0.015699048 1.268 0 0 255 255
-0.24273142 0.015699048 1.268 0 0 255 255
-0.24031618 0.015699048 1.268 0 0 255 255
-0.23790096 0.015699048 1.268 0 0 255 255
-0.2354857 0.015699048 1.268 0 0 255 255
-0.23307048 0.015699048 1.268 0 0 255 255
-0.23065524 0.015699048 1.268 0 0 255 255
-0.22824 0.015699048 1.268 0 0 255 255
-0.22582476 0.015699048 1.268 0 0 255 255
-0.22340952 0.015699048 1.268 0 0 255 255
-0.22099429 0.015699048 1.268 0 0 255 255
-0.21857904 0.015699048 1.268 0 0 255 255
-0.21616381 0.015699048 1.268 0 0 255 255
-0.24514666 0.018114286 1.268 0 0 255 255
-0.24273142 0.018114286 1.268 0 0 255 255
-0.24031618 0.018114286 1.268 0 0 255 255
-0.23790096 0.018114286 1.268 0 0 255 255
-0.2354857 0.018114286 1.268 0 0 255 255
-0.23307048 0.018114286 1.268 0 0 255 255
-0.23065524 0.018114286 1.268 0 0 255 255
-0.22824 0.018114286 1.268 0 0 255 255
-0.22582476 0.018114286 1.268 0 0 255 255
-0.22340952 0.018114286 1.268 0 0 255 255
-0.22099429 0.018114286 1.268 0 0 255 255
-0.21857904 0.018114286 1.268 0 0 255 255
-0.21616381 0.018114286 1.268 0 0 255 255
-0.21374857 0.018114286 1.268 0 0 255 255
-0.21133332 0.018114286 1.268 0 0 255 255
-0.20891809 0.018114286 1.268 0 0 255 255
-0.24514666 0.020529523 1.268 0 0 255 255
-0.24273142 0.020529523 1.268 0 0 255 255
-0.24031618 0.020529523 1.268 0 0 255 255
-0.23790096 0.020529523 1.268 0 0 255 255
-0.2354857 0.020529523 1.268 0 0 255 255
-0.23307048 0.020529523 1.268 0 0 255 255
-0.23065524 0.020529523 1.268 0 0 255 255
-0.22824 0.020529523 1.268 0 0 255 255
-0.22582476 0.020529523 1.268 0 0 255 255
-0.22340952 0.020529523 1.268 0 0 255 255
-0.22099429 0.020529523 1.268 0 0 255 255
-0.21857904 0.020529523 1.268 0 0 255 255
-0.21616381 0.020529523 1.268 0 0 255 255
-0.21374857 0.020529523 1.268 0 0 255 255
-0.21133332 0.020529523 1.268 0 0 255 255
-0.20891809 0.020529523 1.268 0 0 255 255
-0.20650285 0.020529523 1.268 0 0 255 255
-0.24031618 0.022944763 1.268 0 0 255 255
-0.23790096 0.022944763 1.268 0 0 255 255
-0.2354857 0.022944763 1.268 0 0 255 255
-0.23307048 0.022944763 1.268 0 0 255 255
-0.23065524 0.022944763 1.268 0 0 255 255
-0.22824 0.022944763 1.268 0 0 255 255
-0.22582476 0.022944763 1.268 0 0 255 255
-0.22340952 0.022944763 1.268 0 0 255 255
-0.22099429 0.022944763 1.268 0 0 255 255
-0.21857904 0.022944763 1.268 0 0 255 255
-0.21616381 0.022944763 1.268 0 0 255 255
-0.21374857 0.022944763 1.268 0 0 255 255
-0.21133332 0.022944763 1.268 0 0 255 255
-0.20891809 0.022944763 1.268 0 0 255 255
-0.20650285 0.022944763 1.268 0 0 255 255
-0.20408763 0.022944763 1.268 0 0 255 255
-0.20167238 0.022944763 1.268 0 0 255 255
-0.19925714 0.022944763 1.268 0 0 255 255
-0.19684191 0.022944763 1.268 0 0 255 255
-0.2354857 0.025359999 1.268 0 0 255 255
-0.23307048 0.025359999 1.268 0 0 255 255
-0.23065524 0.025359999 1.268 0 0 255 255
-0.22824 0.025359999 1.268 0 0 255 255
-0.22582476 0.025359999 1.268 0 0 255 255
-0.22340952 0.025359999 1.268 0 0 255 255
-0.22099429 0.025359999 1.268 0 0 255 255
-0.21857904 0.025359999 1.268 0 0 255 255
-0.21616381 0.025359999 1.268 0 0 255 255
-0.21374857 0.025359999 1.268 0 0 255 255
-0.21133332 0.025359999 1.268 0 0 255 255
-0.20891809 0.025359999 1.268 0 0 255 255
-0.20650285 0.025359999 1.268 0 0 255 255
-0.20408763 0.025359999 1.268 0 0 255 255
-0.20167238 0.025359999 1.268 0 0 255 255
-0.19925714 0.025359999 1.268 0 0 255 255
-0.19684191 0.025359999 1.268 0 0 255 255
-0.19442666 0.025359999 1.268 0 0 255 255
-0.19201143 0.025359999 1.268 0 0 255 255
-0.18959619 0.025359999 1.268 0 0 255 255
-0.21133332 0.027775237 1.268 0 0 255 255
-0.20891809 0.027775237 1.268 0 0 255 255
-0.20650285 0.027775237 1.268 0 0 255 255
-0.20408763 0.027775237 1.268 0 0 255 255
-0.20167238 0.027775237 1.268 0 0 255 255
-0.19925714 0.027775237 1.268 0 0 255 255
-0.19684191 0.027775237 1.268 0 0 255 255
-0.19442666 0.027775237 1.268 0 0 255 255
-0.19201143 0.027775237 1.268 0 0 255 255
-0.18959619 0.027775237 1.268 0 0 255 255
-0.18718095 0.027775237 1.268 0 0 255 255
-0.18476571 0.027775237 1.268 0 0 255 255
-0.21133332 0.030190477 1.268 0 0 255 255
-0.20891809 0.030190477 1.268 0 0 255 255
-0.20650285 0.030190477 1.268 0 0 255 255
-0.20408763 0.030190477 1.268 0 0 255 255
-0.20167238 0.030190477 1.268 0 0 255 255
-0.19925714 0.030190477 1.268 0 0 255 255
-0.19684191 0.030190477 1.268 0 0 255 255
-0.19442666 0.030190477 1.268 0 0 255 255
-0.19201143 0.030190477 1.268 0 0 255 255
-0.18959619 0.030190477 1.268 0 0 255 255
-0.18718095 0.030190477 1.268 0 0 255 255
-0.18476571 0.030190477 1.268 0 0 255 255
-0.21133332 0.032605715 1.268 0 0 255 255
-0.20891809 0.032605715 1.268 0 0 255 255
-0.20650285 0.032605715 1.268 0 0 255 255
-0.20408763 0.032605715 1.268 0 0 255 255
-0.20167238 0.032605715 1.268 0 0 255 255
-0.19925714 0.032605715 1.268 0 0 255 255
-0.19684191 0.032605715 1.268 0 0 255 255
-0.19442666 0.032605715 1.268 0 0 255 255
-0.21133332 0.035020951 1.268 0 0 255 255
-0.20891809 0.035020951 1.268 0 0 255 255
-0.20650285 0.035020951 1.268 0 0 255 255
-0.20408763 0.035020951 1.268 0 0 255 255
-0.20167238 0.035020951 1.268 0 0 255 255
-0.19925714 0.035020951 1.268 0 0 255 255
-0.20891809 0.037436187 1.268 0 0 255 255
0 0 0 1 0 0 0 1 0 0 0 1 0 0 0 0 0 145 1 0 0
