ply
format ascii 1.0
comment PCL generated
element vertex 127
property float x
property float y
property float z
property uchar red
property uchar green
property uchar blue
property uchar alpha
element camera 1
property float view_px
property float view_py
property float view_pz
property float x_axisx
property float x_axisy
property float x_axisz
property float y_axisx
property float y_axisy
property float y_axisz
property float z_axisx
property float z_axisy
property float z_axisz
property float focal
property float scalex
property float scaley
property float centerx
property float centery
property int viewportx
property int viewporty
property float k1
property float k2
end_header
0.14517811 -0.51262003 1.3490001 247 129 191 255
0.14517811 -0.51005054 1.3490001 247 129 191 255
0.14774762 -0.51005054 1.3490001 247 129 191 255
0.15031715 -0.51005054 1.3490001 247 129 191 255
0.15288667 -0.51005054 1.3490001 247 129 191 255
0.1554562 -0.51005054 1.3490001 247 129 191 255
0.14517811 -0.50748098 1.3490001 247 129 191 255
0.14774762 -0.50748098 1.3490001 247 129 191 255
0.15031715 -0.50748098 1.3490001 247 129 191 255
0.15288667 -0.50748098 1.3490001 247 129 191 255
0.1554562 -0.50748098 1.3490001 247 129 191 255
0.15802573 -0.50748098 1.3490001 247 129 191 255
0.16059525 -0.50748098 1.3490001 247 129 191 255
0.16316478 -0.50748098 1.3490001 247 129 191 255
0.16573429 -0.50748098 1.3490001 247 129 191 255
0.16830382 -0.50748098 1.3490001 247 129 191 255
0.14260858 -0.50491148 1.3490001 247 129 191 255
0.14517811 -0.50491148 1.3490001 247 129 191 255
0.14774762 -0.50491148 1.3490001 247 129 191 255
0.15031715 -0.50491148 1.3490001 247 129 191 255
0.15288667 -0.50491148 1.3490001 247 129 191 255
0.1554562 -0.50491148 1.3490001 247 129 191 255
0.15802573 -0.50491148 1.3490001 247 129 191 255
0.16059525 -0.50491148 1.3490001 247 129 191 255
0.16316478 -0.50491148 1.3490001 247 129 191 255
0.16573429 -0.50491148 1.3490001 247 129 191 255
0.16830382 -0.50491148 1.3490001 247 129 191 255
0.17087334 -0.50491148 1.3490001 247 129 191 255
0.17344286 -0.50491148 1.3490001 247 129 191 255
0.1760124 -0.50491148 1.3490001 247 129 191 255
0.17858192 -0.50491148 1.3490001 247 129 191 255
0.18115143 -0.50491148 1.3490001 247 129 191 255
0.14517811 -0.50234193 1.3490001 247 129 191 255
0.14774762 -0.50234193 1.3490001 247 129 191 255
0.15031715 -0.50234193 1.3490001 247 129 191 255
0.15288667 -0.50234193 1.3490001 247 129 191 255
0.1554562 -0.50234193 1.3490001 247 129 191 255
0.15802573 -0.50234193 1.3490001 247 129 191 255
0.16059525 -0.50234193 1.3490001 247 129 191 255
0.16316478 -0.50234193 1.3490001 247 129 191 255
0.16573429 -0.50234193 1.3490001 247 129 191 255
0.16830382 -0.50234193 1.3490001 247 129 191 255
0.17087334 -0.50234193 1.3490001 247 129 191 255
0.17344286 -0.50234193 1.3490001 247 129 191 255
0.1760124 -0.50234193 1.3490001 247 129 191 255
0.17858192 -0.50234193 1.3490001 247 129 191 255
0.18115143 -0.50234193 1.3490001 247 129 191 255
0.18372096 -0.50234193 1.3490001 247 129 191 255
0.18629049 -0.50234193 1.3490001 247 129 191 255
0.18886 -0.50234193 1.3490001 247 129 191 255
0.15031715 -0.49977243 1.3490001 247 129 191 255
0.15288667 -0.49977243 1.3490001 247 129 191 255
0.1554562 -0.49977243 1.3490001 247 129 191 255
0.15802573 -0.49977243 1.3490001 247 129 191 255
0.16059525 -0.49977243 1.3490001 247 129 191 255
0.16316478 -0.49977243 1.3490001 247 129 191 255
0.16573429 -0.49977243 1.3490001 247 129 191 255
0.16830382 -0.49977243 1.3490001 247 129 191 255
0.17087334 -0.49977243 1.3490001 247 129 191 255
0.17344286 -0.49977243 1.3490001 247 129 191 255
0.1760124 -0.49977243 1.3490001 247 129 191 255
0.17858192 -0.49977243 1.3490001 247 129 191 255
0.18115143 -0.49977243 1.3490001 247 129 191 255
0.18372096 -0.49977243 1.3490001 247 129 191 255
0.18629049 -0.49977243 1.3490001 247 129 191 255
0.18886 -0.49977243 1.3490001 247 129 191 255
0.16059525 -0.4972029 1.3490001 247 129 191 255
0.16316478 -0.4972029 1.3490001 247 129 191 255
0.16573429 -0.4972029 1.3490001 247 129 191 255
0.16830382 -0.4972029 1.3490001 247 129 191 255
0.17087334 -0.4972029 1.3490001 247 129 191 255
0.17344286 -0.4972029 1.3490001 247 129 191 255
0.1760124 -0.4972029 1.3490001 247 129 191 255
0.17858192 -0.4972029 1.3490001 247 129 191 255
0.18115143 -0.4972029 1.3490001 247 129 191 255
0.16316478 -0.49463338 1.3490001 247 129 191 255
0.16573429 -0.49463338 1.3490001 247 129 191 255
0.16830382 -0.49463338 1.3490001 247 129 191 255
0.17087334 -0.49463338 1.3490001 247 129 191 255
0.17344286 -0.49463338 1.3490001 247 129 191 255
0.1760124 -0.49463338 1.3490001 247 129 191 255
0.17858192 -0.49463338 1.3490001 247 129 191 255
0.18115143 -0.49463338 1.3490001 247 129 191 255
0.16316478 -0.49206385 1.3490001 247 129 191 255
0.16573429 -0.49206385 1.3490001 247 129 191 255
0.16830382 -0.49206385 1.3490001 247 129 191 255
0.17087334 -0.49206385 1.3490001 247 129 191 255
0.17344286 -0.49206385 1.3490001 247 129 191 255
0.1760124 -0.49206385 1.3490001 247 129 191 255
0.16316478 -0.48949432 1.3490001 247 129 191 255
0.16573429 -0.48949432 1.3490001 247 129 191 255
0.16830382 -0.48949432 1.3490001 247 129 191 255
0.17087334 -0.48949432 1.3490001 247 129 191 255
0.17344286 -0.48949432 1.3490001 247 129 191 255
0.1760124 -0.48949432 1.3490001 247 129 191 255
0.16316478 -0.48692477 1.3490001 247 129 191 255
0.16573429 -0.48692477 1.3490001 247 129 191 255
0.16830382 -0.48692477 1.3490001 247 129 191 255
0.16316478 -0.48435527 1.3490001 247 129 191 255
0.16573429 -0.48435527 1.3490001 247 129 191 255
0.15988095 -0.47964287 1.3430001 247 129 191 255
0.16316478 -0.48178574 1.3490001 247 129 191 255
0.16573429 -0.48178574 1.3490001 247 129 191 255
0.16755524 -0.47964287 1.3430001 247 129 191 255
0.15732287 -0.47708479 1.3430001 247 129 191 255
0.15988095 -0.47708479 1.3430001 247 129 191 255
0.16243905 -0.47708479 1.3430001 247 129 191 255
0.16573429 -0.47921622 1.3490001 247 129 191 255
0.16830382 -0.47921622 1.3490001 247 129 191 255
0.17011334 -0.47708479 1.3430001 247 129 191 255
0.17267144 -0.47708479 1.3430001 247 129 191 255
0.17522953 -0.47708479 1.3430001 247 129 191 255
0.17778762 -0.47708479 1.3430001 247 129 191 255
0.15732287 -0.47452667 1.3430001 247 129 191 255
0.15988095 -0.47452667 1.3430001 247 129 191 255
0.16243905 -0.47452667 1.3430001 247 129 191 255
0.16573429 -0.47664669 1.3490001 247 129 191 255
0.16755524 -0.47452667 1.3430001 247 129 191 255
0.17011334 -0.47452667 1.3430001 247 129 191 255
0.17267144 -0.47452667 1.3430001 247 129 191 255
0.17522953 -0.47452667 1.3430001 247 129 191 255
0.17778762 -0.47452667 1.3430001 247 129 191 255
0.16243905 -0.47196859 1.3430001 247 129 191 255
0.16499715 -0.47196859 1.3430001 247 129 191 255
0.16755524 -0.47196859 1.3430001 247 129 191 255
0.17011334 -0.47196859 1.3430001 247 129 191 255
0.17267144 -0.47196859 1.3430001 247 129 191 255
0 0 0 1 0 0 0 1 0 0 0 1 0 0 0 0 0 127 1 0 0
