ply
format ascii 1.0
comment PCL generated
element vertex 705
property float x
property float y
property float z
property uchar red
property uchar green
property uchar blue
property uchar alpha
element camera 1
property float view_px
property float view_py
property float view_pz
property float x_axisx
property float x_axisy
property float x_axisz
property float y_axisx
property float y_axisy
property float y_axisz
property float z_axisx
property float z_axisy
property float z_axisz
property float focal
property float scalex
property float scaley
property float centerx
property float centery
property int viewportx
property int viewporty
property float k1
property float k2
end_header
0.30723429 -0.069451429 1.2360001 255 127 0 255
0.30958858 -0.069451429 1.2360001 255 127 0 255
0.31194288 -0.069451429 1.2360001 255 127 0 255
0.31429717 -0.069451429 1.2360001 255 127 0 255
0.30252573 -0.067097142 1.2360001 255 127 0 255
0.30488002 -0.067097142 1.2360001 255 127 0 255
0.30723429 -0.067097142 1.2360001 255 127 0 255
0.30958858 -0.067097142 1.2360001 255 127 0 255
0.31194288 -0.067097142 1.2360001 255 127 0 255
0.31429717 -0.067097142 1.2360001 255 127 0 255
0.30017143 -0.064742863 1.2360001 255 127 0 255
0.30252573 -0.064742863 1.2360001 255 127 0 255
0.30488002 -0.064742863 1.2360001 255 127 0 255
0.30723429 -0.064742863 1.2360001 255 127 0 255
0.30958858 -0.064742863 1.2360001 255 127 0 255
0.31194288 -0.064742863 1.2360001 255 127 0 255
0.31429717 -0.064742863 1.2360001 255 127 0 255
0.31665143 -0.064742863 1.2360001 255 127 0 255
0.31900573 -0.064742863 1.2360001 255 127 0 255
0.32842287 -0.064742863 1.2360001 255 127 0 255
0.33077714 -0.064742863 1.2360001 255 127 0 255
0.33313146 -0.064742863 1.2360001 255 127 0 255
0.33548573 -0.064742863 1.2360001 255 127 0 255
0.33784002 -0.064742863 1.2360001 255 127 0 255
0.27662858 -0.062388573 1.2360001 255 127 0 255
0.27898285 -0.062388573 1.2360001 255 127 0 255
0.29781714 -0.062388573 1.2360001 255 127 0 255
0.30017143 -0.062388573 1.2360001 255 127 0 255
0.30154669 -0.06218667 1.2320001 255 127 0 255
0.30389336 -0.06218667 1.2320001 255 127 0 255
0.30624002 -0.06218667 1.2320001 255 127 0 255
0.30858669 -0.06218667 1.2320001 255 127 0 255
0.31093338 -0.06218667 1.2320001 255 127 0 255
0.31328002 -0.06218667 1.2320001 255 127 0 255
0.31562668 -0.06218667 1.2320001 255 127 0 255
0.31797338 -0.06218667 1.2320001 255 127 0 255
0.32032001 -0.06218667 1.2320001 255 127 0 255
0.32371432 -0.062388573 1.2360001 255 127 0 255
0.32606858 -0.062388573 1.2360001 255 127 0 255
0.32842287 -0.062388573 1.2360001 255 127 0 255
0.33077714 -0.062388573 1.2360001 255 127 0 255
0.33313146 -0.062388573 1.2360001 255 127 0 255
0.33548573 -0.062388573 1.2360001 255 127 0 255
0.33784002 -0.062388573 1.2360001 255 127 0 255
0.34019428 -0.062388573 1.2360001 255 127 0 255
0.34254858 -0.062388573 1.2360001 255 127 0 255
0.27808005 -0.059840005 1.2320001 255 127 0 255
0.28042668 -0.059840005 1.2320001 255 127 0 255
0.28277335 -0.059840005 1.2320001 255 127 0 255
0.28604573 -0.060034286 1.2360001 255 127 0 255
0.28839999 -0.060034286 1.2360001 255 127 0 255
0.29075432 -0.060034286 1.2360001 255 127 0 255
0.29310858 -0.060034286 1.2360001 255 127 0 255
0.29546288 -0.060034286 1.2360001 255 127 0 255
0.29685333 -0.059840005 1.2320001 255 127 0 255
0.29920003 -0.059840005 1.2320001 255 127 0 255
0.30154669 -0.059840005 1.2320001 255 127 0 255
0.30389336 -0.059840005 1.2320001 255 127 0 255
0.30499718 -0.059597149 1.2270001 255 127 0 255
0.3073343 -0.059597149 1.2270001 255 127 0 255
0.31093338 -0.059840005 1.2320001 255 127 0 255
0.31328002 -0.059840005 1.2320001 255 127 0 255
0.31562668 -0.059840005 1.2320001 255 127 0 255
0.31797338 -0.059840005 1.2320001 255 127 0 255
0.32032001 -0.059840005 1.2320001 255 127 0 255
0.32266667 -0.059840005 1.2320001 255 127 0 255
0.32501337 -0.059840005 1.2320001 255 127 0 255
0.32736003 -0.059840005 1.2320001 255 127 0 255
0.32970667 -0.059840005 1.2320001 255 127 0 255
0.33205336 -0.059840005 1.2320001 255 127 0 255
0.33440003 -0.059840005 1.2320001 255 127 0 255
0.33674669 -0.059840005 1.2320001 255 127 0 255
0.34019428 -0.060034286 1.2360001 255 127 0 255
0.34254858 -0.060034286 1.2360001 255 127 0 255
0.34490287 -0.060034286 1.2360001 255 127 0 255
0.34725717 -0.060034286 1.2360001 255 127 0 255
0.34961143 -0.060034286 1.2360001 255 127 0 255
0.26869336 -0.057493336 1.2320001 255 127 0 255
0.27104002 -0.057493336 1.2320001 255 127 0 255
0.27338669 -0.057493336 1.2320001 255 127 0 255
0.27573335 -0.057493336 1.2320001 255 127 0 255
0.27808005 -0.057493336 1.2320001 255 127 0 255
0.27928859 -0.057260003 1.2270001 255 127 0 255
0.28162575 -0.057260003 1.2270001 255 127 0 255
0.28512004 -0.057493336 1.2320001 255 127 0 255
0.28746668 -0.057493336 1.2320001 255 127 0 255
0.28981334 -0.057493336 1.2320001 255 127 0 255
0.29216003 -0.057493336 1.2320001 255 127 0 255
0.2945067 -0.057493336 1.2320001 255 127 0 255
0.2956486 -0.057260003 1.2270001 255 127 0 255
0.29798576 -0.057260003 1.2270001 255 127 0 255
0.30032286 -0.057260003 1.2270001 255 127 0 255
0.30266002 -0.057260003 1.2270001 255 127 0 255
0.30499718 -0.057260003 1.2270001 255 127 0 255
0.3073343 -0.057260003 1.2270001 255 127 0 255
0.30967146 -0.057260003 1.2270001 255 127 0 255
0.31200862 -0.057260003 1.2270001 255 127 0 255
0.31434572 -0.057260003 1.2270001 255 127 0 255
0.31668288 -0.057260003 1.2270001 255 127 0 255
0.31902003 -0.057260003 1.2270001 255 127 0 255
0.32135716 -0.057260003 1.2270001 255 127 0 255
0.32369432 -0.057260003 1.2270001 255 127 0 255
0.32736003 -0.057493336 1.2320001 255 127 0 255
0.32970667 -0.057493336 1.2320001 255 127 0 255
0.33205336 -0.057493336 1.2320001 255 127 0 255
0.33440003 -0.057493336 1.2320001 255 127 0 255
0.33674669 -0.057493336 1.2320001 255 127 0 255
0.34019428 -0.057680003 1.2360001 255 127 0 255
0.34254858 -0.057680003 1.2360001 255 127 0 255
0.34490287 -0.057680003 1.2360001 255 127 0 255
0.34725717 -0.057680003 1.2360001 255 127 0 255
0.34961143 -0.057680003 1.2360001 255 127 0 255
0.35196573 -0.057680003 1.2360001 255 127 0 255
0.26869336 -0.055146672 1.2320001 255 127 0 255
0.27104002 -0.055146672 1.2320001 255 127 0 255
0.27227715 -0.054922864 1.2270001 255 127 0 255
0.2746143 -0.054922864 1.2270001 255 127 0 255
0.27695146 -0.054922864 1.2270001 255 127 0 255
0.2783781 -0.054743811 1.223 255 127 0 255
0.28070763 -0.054743811 1.223 255 127 0 255
0.28303716 -0.054743811 1.223 255 127 0 255
0.28536668 -0.054743811 1.223 255 127 0 255
0.28769621 -0.054743811 1.223 255 127 0 255
0.29002571 -0.054743811 1.223 255 127 0 255
0.29235527 -0.054743811 1.223 255 127 0 255
0.29468477 -0.054743811 1.223 255 127 0 255
0.2970143 -0.054743811 1.223 255 127 0 255
0.29934382 -0.054743811 1.223 255 127 0 255
0.30167335 -0.054743811 1.223 255 127 0 255
0.30400285 -0.054743811 1.223 255 127 0 255
0.30633238 -0.054743811 1.223 255 127 0 255
0.30866191 -0.054743811 1.223 255 127 0 255
0.31099144 -0.054743811 1.223 255 127 0 255
0.31332093 -0.054743811 1.223 255 127 0 255
0.31565049 -0.054743811 1.223 255 127 0 255
0.31798002 -0.054743811 1.223 255 127 0 255
0.32030952 -0.054743811 1.223 255 127 0 255
0.32263908 -0.054743811 1.223 255 127 0 255
0.32603148 -0.054922864 1.2270001 255 127 0 255
0.32836857 -0.054922864 1.2270001 255 127 0 255
0.33070573 -0.054922864 1.2270001 255 127 0 255
0.33304289 -0.054922864 1.2270001 255 127 0 255
0.33674669 -0.055146672 1.2320001 255 127 0 255
0.33909336 -0.055146672 1.2320001 255 127 0 255
0.34144002 -0.055146672 1.2320001 255 127 0 255
0.34378672 -0.055146672 1.2320001 255 127 0 255
0.34613335 -0.055146672 1.2320001 255 127 0 255
0.34848002 -0.055146672 1.2320001 255 127 0 255
0.35082671 -0.055146672 1.2320001 255 127 0 255
0.35432002 -0.055325717 1.2360001 255 127 0 255
0.35667431 -0.055325717 1.2360001 255 127 0 255
0.26673049 -0.052414287 1.223 255 127 0 255
0.26905999 -0.052414287 1.223 255 127 0 255
0.27138954 -0.052414287 1.223 255 127 0 255
0.27371904 -0.052414287 1.223 255 127 0 255
0.27604857 -0.052414287 1.223 255 127 0 255
0.2783781 -0.052414287 1.223 255 127 0 255
0.28070763 -0.052414287 1.223 255 127 0 255
0.28303716 -0.052414287 1.223 255 127 0 255
0.28536668 -0.052414287 1.223 255 127 0 255
0.28769621 -0.052414287 1.223 255 127 0 255
0.29002571 -0.052414287 1.223 255 127 0 255
0.29235527 -0.052414287 1.223 255 127 0 255
0.29468477 -0.052414287 1.223 255 127 0 255
0.2970143 -0.052414287 1.223 255 127 0 255
0.29934382 -0.052414287 1.223 255 127 0 255
0.30167335 -0.052414287 1.223 255 127 0 255
0.30400285 -0.052414287 1.223 255 127 0 255
0.30633238 -0.052414287 1.223 255 127 0 255
0.30866191 -0.052414287 1.223 255 127 0 255
0.31099144 -0.052414287 1.223 255 127 0 255
0.31332093 -0.052414287 1.223 255 127 0 255
0.31461811 -0.05224286 1.2190001 255 127 0 255
0.31694001 -0.05224286 1.2190001 255 127 0 255
0.31926194 -0.05224286 1.2190001 255 127 0 255
0.32263908 -0.052414287 1.223 255 127 0 255
0.32496858 -0.052414287 1.223 255 127 0 255
0.32836857 -0.052585717 1.2270001 255 127 0 255
0.33070573 -0.052585717 1.2270001 255 127 0 255
0.33304289 -0.052585717 1.2270001 255 127 0 255
0.33538005 -0.052585717 1.2270001 255 127 0 255
0.33771718 -0.052585717 1.2270001 255 127 0 255
0.3400543 -0.052585717 1.2270001 255 127 0 255
0.34239146 -0.052585717 1.2270001 255 127 0 255
0.34472859 -0.052585717 1.2270001 255 127 0 255
0.34706575 -0.052585717 1.2270001 255 127 0 255
0.35082671 -0.052800007 1.2320001 255 127 0 255
0.35432002 -0.05297143 1.2360001 255 127 0 255
0.35667431 -0.05297143 1.2360001 255 127 0 255
0.26673049 -0.050084762 1.223 255 127 0 255
0.26818001 -0.049920954 1.2190001 255 127 0 255
0.27050194 -0.049920954 1.2190001 255 127 0 255
0.27282384 -0.049920954 1.2190001 255 127 0 255
0.27514574 -0.049920954 1.2190001 255 127 0 255
0.27746764 -0.049920954 1.2190001 255 127 0 255
0.27978954 -0.049920954 1.2190001 255 127 0 255
0.28211144 -0.049920954 1.2190001 255 127 0 255
0.28443336 -0.049920954 1.2190001 255 127 0 255
0.28675526 -0.049920954 1.2190001 255 127 0 255
0.28907716 -0.049920954 1.2190001 255 127 0 255
0.29139906 -0.049920954 1.2190001 255 127 0 255
0.29372096 -0.049920954 1.2190001 255 127 0 255
0.29604289 -0.049920954 1.2190001 255 127 0 255
0.29836479 -0.049920954 1.2190001 255 127 0 255
0.30068669 -0.049920954 1.2190001 255 127 0 255
0.30300859 -0.049920954 1.2190001 255 127 0 255
0.30533049 -0.049920954 1.2190001 255 127 0 255
0.30765241 -0.049920954 1.2190001 255 127 0 255
0.30997431 -0.049920954 1.2190001 255 127 0 255
0.31229621 -0.049920954 1.2190001 255 127 0 255
0.31461811 -0.049920954 1.2190001 255 127 0 255
0.31694001 -0.049920954 1.2190001 255 127 0 255
0.31926194 -0.049920954 1.2190001 255 127 0 255
0.32263908 -0.050084762 1.223 255 127 0 255
0.32496858 -0.050084762 1.223 255 127 0 255
0.3272981 -0.050084762 1.223 255 127 0 255
0.32962763 -0.050084762 1.223 255 127 0 255
0.33195716 -0.050084762 1.223 255 127 0 255
0.33428666 -0.050084762 1.223 255 127 0 255
0.33661622 -0.050084762 1.223 255 127 0 255
0.33894572 -0.050084762 1.223 255 127 0 255
0.34239146 -0.050248574 1.2270001 255 127 0 255
0.34472859 -0.050248574 1.2270001 255 127 0 255
0.34706575 -0.050248574 1.2270001 255 127 0 255
0.3494029 -0.050248574 1.2270001 255 127 0 255
0.35317335 -0.050453339 1.2320001 255 127 0 255
0.26673049 -0.047755238 1.223 255 127 0 255
0.26818001 -0.047599051 1.2190001 255 127 0 255
0.27050194 -0.047599051 1.2190001 255 127 0 255
0.27282384 -0.047599051 1.2190001 255 127 0 255
0.27514574 -0.047599051 1.2190001 255 127 0 255
0.27746764 -0.047599051 1.2190001 255 127 0 255
0.27978954 -0.047599051 1.2190001 255 127 0 255
0.28211144 -0.047599051 1.2190001 255 127 0 255
0.28443336 -0.047599051 1.2190001 255 127 0 255
0.28675526 -0.047599051 1.2190001 255 127 0 255
0.28907716 -0.047599051 1.2190001 255 127 0 255
0.29139906 -0.047599051 1.2190001 255 127 0 255
0.29372096 -0.047599051 1.2190001 255 127 0 255
0.29604289 -0.047599051 1.2190001 255 127 0 255
0.29836479 -0.047599051 1.2190001 255 127 0 255
0.30068669 -0.047599051 1.2190001 255 127 0 255
0.30300859 -0.047599051 1.2190001 255 127 0 255
0.30533049 -0.047599051 1.2190001 255 127 0 255
0.30765241 -0.047599051 1.2190001 255 127 0 255
0.30997431 -0.047599051 1.2190001 255 127 0 255
0.31229621 -0.047599051 1.2190001 255 127 0 255
0.31461811 -0.047599051 1.2190001 255 127 0 255
0.31694001 -0.047599051 1.2190001 255 127 0 255
0.31926194 -0.047599051 1.2190001 255 127 0 255
0.32158384 -0.047599051 1.2190001 255 127 0 255
0.32390574 -0.047599051 1.2190001 255 127 0 255
0.3272981 -0.047755238 1.223 255 127 0 255
0.32962763 -0.047755238 1.223 255 127 0 255
0.33195716 -0.047755238 1.223 255 127 0 255
0.33428666 -0.047755238 1.223 255 127 0 255
0.33661622 -0.047755238 1.223 255 127 0 255
0.33894572 -0.047755238 1.223 255 127 0 255
0.34127524 -0.047755238 1.223 255 127 0 255
0.34360477 -0.047755238 1.223 255 127 0 255
0.3459343 -0.047755238 1.223 255 127 0 255
0.3494029 -0.047911432 1.2270001 255 127 0 255
0.35317335 -0.04810667 1.2320001 255 127 0 255
0.26818001 -0.045277145 1.2190001 255 127 0 255
0.27050194 -0.045277145 1.2190001 255 127 0 255
0.27282384 -0.045277145 1.2190001 255 127 0 255
0.27514574 -0.045277145 1.2190001 255 127 0 255
0.27746764 -0.045277145 1.2190001 255 127 0 255
0.27978954 -0.045277145 1.2190001 255 127 0 255
0.28211144 -0.045277145 1.2190001 255 127 0 255
0.28443336 -0.045277145 1.2190001 255 127 0 255
0.28675526 -0.045277145 1.2190001 255 127 0 255
0.28907716 -0.045277145 1.2190001 255 127 0 255
0.29139906 -0.045277145 1.2190001 255 127 0 255
0.29372096 -0.045277145 1.2190001 255 127 0 255
0.29604289 -0.045277145 1.2190001 255 127 0 255
0.29836479 -0.045277145 1.2190001 255 127 0 255
0.30068669 -0.045277145 1.2190001 255 127 0 255
0.30300859 -0.045277145 1.2190001 255 127 0 255
0.30533049 -0.045277145 1.2190001 255 127 0 255
0.30765241 -0.045277145 1.2190001 255 127 0 255
0.30997431 -0.045277145 1.2190001 255 127 0 255
0.31229621 -0.045277145 1.2190001 255 127 0 255
0.31461811 -0.045277145 1.2190001 255 127 0 255
0.31694001 -0.045277145 1.2190001 255 127 0 255
0.31926194 -0.045277145 1.2190001 255 127 0 255
0.32158384 -0.045277145 1.2190001 255 127 0 255
0.32390574 -0.045277145 1.2190001 255 127 0 255
0.3272981 -0.045425717 1.223 255 127 0 255
0.32962763 -0.045425717 1.223 255 127 0 255
0.33195716 -0.045425717 1.223 255 127 0 255
0.33428666 -0.045425717 1.223 255 127 0 255
0.33661622 -0.045425717 1.223 255 127 0 255
0.33894572 -0.045425717 1.223 255 127 0 255
0.34127524 -0.045425717 1.223 255 127 0 255
0.34360477 -0.045425717 1.223 255 127 0 255
0.3459343 -0.045425717 1.223 255 127 0 255
0.3494029 -0.045574289 1.2270001 255 127 0 255
0.35174003 -0.045574289 1.2270001 255 127 0 255
0.35552001 -0.045760002 1.2320001 255 127 0 255
0.26818001 -0.042955242 1.2190001 255 127 0 255
0.27050194 -0.042955242 1.2190001 255 127 0 255
0.27282384 -0.042955242 1.2190001 255 127 0 255
0.27514574 -0.042955242 1.2190001 255 127 0 255
0.27746764 -0.042955242 1.2190001 255 127 0 255
0.27978954 -0.042955242 1.2190001 255 127 0 255
0.28211144 -0.042955242 1.2190001 255 127 0 255
0.28443336 -0.042955242 1.2190001 255 127 0 255
0.28675526 -0.042955242 1.2190001 255 127 0 255
0.28907716 -0.042955242 1.2190001 255 127 0 255
0.29139906 -0.042955242 1.2190001 255 127 0 255
0.29372096 -0.042955242 1.2190001 255 127 0 255
0.29604289 -0.042955242 1.2190001 255 127 0 255
0.29836479 -0.042955242 1.2190001 255 127 0 255
0.30068669 -0.042955242 1.2190001 255 127 0 255
0.30300859 -0.042955242 1.2190001 255 127 0 255
0.30533049 -0.042955242 1.2190001 255 127 0 255
0.30765241 -0.042955242 1.2190001 255 127 0 255
0.30997431 -0.042955242 1.2190001 255 127 0 255
0.31229621 -0.042955242 1.2190001 255 127 0 255
0.31461811 -0.042955242 1.2190001 255 127 0 255
0.31694001 -0.042955242 1.2190001 255 127 0 255
0.31926194 -0.042955242 1.2190001 255 127 0 255
0.32158384 -0.042955242 1.2190001 255 127 0 255
0.32390574 -0.042955242 1.2190001 255 127 0 255
0.32622764 -0.042955242 1.2190001 255 127 0 255
0.32854953 -0.042955242 1.2190001 255 127 0 255
0.33195716 -0.043096192 1.223 255 127 0 255
0.33428666 -0.043096192 1.223 255 127 0 255
0.33661622 -0.043096192 1.223 255 127 0 255
0.33894572 -0.043096192 1.223 255 127 0 255
0.34127524 -0.043096192 1.223 255 127 0 255
0.34360477 -0.043096192 1.223 255 127 0 255
0.3459343 -0.043096192 1.223 255 127 0 255
0.3494029 -0.04323715 1.2270001 255 127 0 255
0.35174003 -0.04323715 1.2270001 255 127 0 255
0.35552001 -0.043413337 1.2320001 255 127 0 255
0.26905999 -0.040766668 1.223 255 127 0 255
0.27050194 -0.040633336 1.2190001 255 127 0 255
0.27282384 -0.040633336 1.2190001 255 127 0 255
0.27514574 -0.040633336 1.2190001 255 127 0 255
0.27746764 -0.040633336 1.2190001 255 127 0 255
0.27978954 -0.040633336 1.2190001 255 127 0 255
0.28211144 -0.040633336 1.2190001 255 127 0 255
0.28443336 -0.040633336 1.2190001 255 127 0 255
0.28675526 -0.040633336 1.2190001 255 127 0 255
0.28907716 -0.040633336 1.2190001 255 127 0 255
0.29139906 -0.040633336 1.2190001 255 127 0 255
0.29372096 -0.040633336 1.2190001 255 127 0 255
0.29604289 -0.040633336 1.2190001 255 127 0 255
0.29836479 -0.040633336 1.2190001 255 127 0 255
0.30068669 -0.040633336 1.2190001 255 127 0 255
0.30300859 -0.040633336 1.2190001 255 127 0 255
0.30533049 -0.040633336 1.2190001 255 127 0 255
0.30765241 -0.040633336 1.2190001 255 127 0 255
0.30997431 -0.040633336 1.2190001 255 127 0 255
0.31229621 -0.040633336 1.2190001 255 127 0 255
0.31461811 -0.040633336 1.2190001 255 127 0 255
0.31694001 -0.040633336 1.2190001 255 127 0 255
0.31926194 -0.040633336 1.2190001 255 127 0 255
0.32158384 -0.040633336 1.2190001 255 127 0 255
0.32390574 -0.040633336 1.2190001 255 127 0 255
0.32622764 -0.040633336 1.2190001 255 127 0 255
0.32854953 -0.040633336 1.2190001 255 127 0 255
0.33195716 -0.040766668 1.223 255 127 0 255
0.33428666 -0.040766668 1.223 255 127 0 255
0.33661622 -0.040766668 1.223 255 127 0 255
0.33894572 -0.040766668 1.223 255 127 0 255
0.34127524 -0.040766668 1.223 255 127 0 255
0.34248099 -0.040633336 1.2190001 255 127 0 255
0.34480289 -0.040633336 1.2190001 255 127 0 255
0.3482638 -0.040766668 1.223 255 127 0 255
0.35174003 -0.040900003 1.2270001 255 127 0 255
0.35552001 -0.041066669 1.2320001 255 127 0 255
0.27050194 -0.038311433 1.2190001 255 127 0 255
0.27282384 -0.038311433 1.2190001 255 127 0 255
0.27514574 -0.038311433 1.2190001 255 127 0 255
0.27746764 -0.038311433 1.2190001 255 127 0 255
0.27978954 -0.038311433 1.2190001 255 127 0 255
0.28211144 -0.038311433 1.2190001 255 127 0 255
0.28443336 -0.038311433 1.2190001 255 127 0 255
0.28675526 -0.038311433 1.2190001 255 127 0 255
0.28907716 -0.038311433 1.2190001 255 127 0 255
0.29139906 -0.038311433 1.2190001 255 127 0 255
0.29372096 -0.038311433 1.2190001 255 127 0 255
0.29604289 -0.038311433 1.2190001 255 127 0 255
0.29836479 -0.038311433 1.2190001 255 127 0 255
0.30068669 -0.038311433 1.2190001 255 127 0 255
0.30300859 -0.038311433 1.2190001 255 127 0 255
0.30533049 -0.038311433 1.2190001 255 127 0 255
0.30765241 -0.038311433 1.2190001 255 127 0 255
0.30997431 -0.038311433 1.2190001 255 127 0 255
0.31229621 -0.038311433 1.2190001 255 127 0 255
0.31461811 -0.038311433 1.2190001 255 127 0 255
0.31564003 -0.038154289 1.2140001 255 127 0 255
0.31795242 -0.038154289 1.2140001 255 127 0 255
0.32158384 -0.038311433 1.2190001 255 127 0 255
0.32390574 -0.038311433 1.2190001 255 127 0 255
0.32622764 -0.038311433 1.2190001 255 127 0 255
0.32854953 -0.038311433 1.2190001 255 127 0 255
0.33195716 -0.038437143 1.223 255 127 0 255
0.33428666 -0.038437143 1.223 255 127 0 255
0.33661622 -0.038437143 1.223 255 127 0 255
0.33783716 -0.038311433 1.2190001 255 127 0 255
0.34015906 -0.038311433 1.2190001 255 127 0 255
0.34248099 -0.038311433 1.2190001 255 127 0 255
0.34480289 -0.038311433 1.2190001 255 127 0 255
0.3482638 -0.038437143 1.223 255 127 0 255
0.35174003 -0.03856286 1.2270001 255 127 0 255
0.35552001 -0.038720001 1.2320001 255 127 0 255
0.3578667 -0.038720001 1.2320001 255 127 0 255
0.27050194 -0.035989527 1.2190001 255 127 0 255
0.27282384 -0.035989527 1.2190001 255 127 0 255
0.27514574 -0.035989527 1.2190001 255 127 0 255
0.27746764 -0.035989527 1.2190001 255 127 0 255
0.27978954 -0.035989527 1.2190001 255 127 0 255
0.28211144 -0.035989527 1.2190001 255 127 0 255
0.28443336 -0.035989527 1.2190001 255 127 0 255
0.28675526 -0.035989527 1.2190001 255 127 0 255
0.28907716 -0.035989527 1.2190001 255 127 0 255
0.29139906 -0.035989527 1.2190001 255 127 0 255
0.29372096 -0.035989527 1.2190001 255 127 0 255
0.29604289 -0.035989527 1.2190001 255 127 0 255
0.29836479 -0.035989527 1.2190001 255 127 0 255
0.30068669 -0.035989527 1.2190001 255 127 0 255
0.30300859 -0.035989527 1.2190001 255 127 0 255
0.30533049 -0.035989527 1.2190001 255 127 0 255
0.30765241 -0.035989527 1.2190001 255 127 0 255
0.30997431 -0.035989527 1.2190001 255 127 0 255
0.31229621 -0.035989527 1.2190001 255 127 0 255
0.31461811 -0.035989527 1.2190001 255 127 0 255
0.31564003 -0.035841908 1.2140001 255 127 0 255
0.31795242 -0.035841908 1.2140001 255 127 0 255
0.32158384 -0.035989527 1.2190001 255 127 0 255
0.32390574 -0.035989527 1.2190001 255 127 0 255
0.32622764 -0.035989527 1.2190001 255 127 0 255
0.32854953 -0.035989527 1.2190001 255 127 0 255
0.33195716 -0.036107622 1.223 255 127 0 255
0.33428666 -0.036107622 1.223 255 127 0 255
0.33661622 -0.036107622 1.223 255 127 0 255
0.33783716 -0.035989527 1.2190001 255 127 0 255
0.34015906 -0.035989527 1.2190001 255 127 0 255
0.34248099 -0.035989527 1.2190001 255 127 0 255
0.34480289 -0.035989527 1.2190001 255 127 0 255
0.3482638 -0.036107622 1.223 255 127 0 255
0.35174003 -0.036225718 1.2270001 255 127 0 255
0.35407716 -0.036225718 1.2270001 255 127 0 255
0.3578667 -0.03637334 1.2320001 255 127 0 255
0.27138954 -0.033778097 1.223 255 127 0 255
0.27371904 -0.033778097 1.223 255 127 0 255
0.27604857 -0.033778097 1.223 255 127 0 255
0.27746764 -0.03366762 1.2190001 255 127 0 255
0.27978954 -0.03366762 1.2190001 255 127 0 255
0.28303716 -0.033778097 1.223 255 127 0 255
0.28443336 -0.03366762 1.2190001 255 127 0 255
0.28675526 -0.03366762 1.2190001 255 127 0 255
0.28907716 -0.03366762 1.2190001 255 127 0 255
0.29139906 -0.03366762 1.2190001 255 127 0 255
0.29372096 -0.03366762 1.2190001 255 127 0 255
0.29604289 -0.03366762 1.2190001 255 127 0 255
0.29836479 -0.03366762 1.2190001 255 127 0 255
0.30068669 -0.03366762 1.2190001 255 127 0 255
0.30300859 -0.03366762 1.2190001 255 127 0 255
0.30533049 -0.03366762 1.2190001 255 127 0 255
0.30765241 -0.03366762 1.2190001 255 127 0 255
0.30997431 -0.03366762 1.2190001 255 127 0 255
0.31229621 -0.03366762 1.2190001 255 127 0 255
0.31461811 -0.03366762 1.2190001 255 127 0 255
0.31694001 -0.03366762 1.2190001 255 127 0 255
0.31926194 -0.03366762 1.2190001 255 127 0 255
0.32158384 -0.03366762 1.2190001 255 127 0 255
0.32390574 -0.03366762 1.2190001 255 127 0 255
0.32622764 -0.03366762 1.2190001 255 127 0 255
0.32854953 -0.03366762 1.2190001 255 127 0 255
0.33195716 -0.033778097 1.223 255 127 0 255
0.33428666 -0.033778097 1.223 255 127 0 255
0.33661622 -0.033778097 1.223 255 127 0 255
0.33894572 -0.033778097 1.223 255 127 0 255
0.34127524 -0.033778097 1.223 255 127 0 255
0.34360477 -0.033778097 1.223 255 127 0 255
0.3459343 -0.033778097 1.223 255 127 0 255
0.3482638 -0.033778097 1.223 255 127 0 255
0.35174003 -0.033888575 1.2270001 255 127 0 255
0.35407716 -0.033888575 1.2270001 255 127 0 255
0.3578667 -0.034026671 1.2320001 255 127 0 255
0.27138954 -0.031448569 1.223 255 127 0 255
0.27282384 -0.031345718 1.2190001 255 127 0 255
0.27514574 -0.031345718 1.2190001 255 127 0 255
0.2783781 -0.031448569 1.223 255 127 0 255
0.28070763 -0.031448569 1.223 255 127 0 255
0.28303716 -0.031448569 1.223 255 127 0 255
0.28443336 -0.031345718 1.2190001 255 127 0 255
0.28675526 -0.031345718 1.2190001 255 127 0 255
0.28907716 -0.031345718 1.2190001 255 127 0 255
0.29139906 -0.031345718 1.2190001 255 127 0 255
0.29372096 -0.031345718 1.2190001 255 127 0 255
0.29604289 -0.031345718 1.2190001 255 127 0 255
0.29836479 -0.031345718 1.2190001 255 127 0 255
0.30068669 -0.031345718 1.2190001 255 127 0 255
0.30300859 -0.031345718 1.2190001 255 127 0 255
0.30533049 -0.031345718 1.2190001 255 127 0 255
0.30765241 -0.031345718 1.2190001 255 127 0 255
0.30997431 -0.031345718 1.2190001 255 127 0 255
0.31229621 -0.031345718 1.2190001 255 127 0 255
0.31461811 -0.031345718 1.2190001 255 127 0 255
0.31694001 -0.031345718 1.2190001 255 127 0 255
0.31926194 -0.031345718 1.2190001 255 127 0 255
0.32158384 -0.031345718 1.2190001 255 127 0 255
0.32390574 -0.031345718 1.2190001 255 127 0 255
0.32622764 -0.031345718 1.2190001 255 127 0 255
0.32854953 -0.031345718 1.2190001 255 127 0 255
0.33195716 -0.031448569 1.223 255 127 0 255
0.33428666 -0.031448569 1.223 255 127 0 255
0.33661622 -0.031448569 1.223 255 127 0 255
0.33894572 -0.031448569 1.223 255 127 0 255
0.34127524 -0.031448569 1.223 255 127 0 255
0.34360477 -0.031448569 1.223 255 127 0 255
0.3459343 -0.031448569 1.223 255 127 0 255
0.3482638 -0.031448569 1.223 255 127 0 255
0.35174003 -0.031551428 1.2270001 255 127 0 255
0.35407716 -0.031551428 1.2270001 255 127 0 255
0.27138954 -0.029119048 1.223 255 127 0 255
0.27282384 -0.029023811 1.2190001 255 127 0 255
0.27514574 -0.029023811 1.2190001 255 127 0 255
0.2783781 -0.029119048 1.223 255 127 0 255
0.28070763 -0.029119048 1.223 255 127 0 255
0.28303716 -0.029119048 1.223 255 127 0 255
0.28443336 -0.029023811 1.2190001 255 127 0 255
0.28675526 -0.029023811 1.2190001 255 127 0 255
0.28907716 -0.029023811 1.2190001 255 127 0 255
0.29139906 -0.029023811 1.2190001 255 127 0 255
0.29372096 -0.029023811 1.2190001 255 127 0 255
0.29604289 -0.029023811 1.2190001 255 127 0 255
0.29836479 -0.029023811 1.2190001 255 127 0 255
0.30068669 -0.029023811 1.2190001 255 127 0 255
0.30300859 -0.029023811 1.2190001 255 127 0 255
0.30533049 -0.029023811 1.2190001 255 127 0 255
0.30765241 -0.029023811 1.2190001 255 127 0 255
0.30997431 -0.029023811 1.2190001 255 127 0 255
0.31229621 -0.029023811 1.2190001 255 127 0 255
0.31461811 -0.029023811 1.2190001 255 127 0 255
0.31694001 -0.029023811 1.2190001 255 127 0 255
0.31926194 -0.029023811 1.2190001 255 127 0 255
0.32158384 -0.029023811 1.2190001 255 127 0 255
0.32390574 -0.029023811 1.2190001 255 127 0 255
0.32622764 -0.029023811 1.2190001 255 127 0 255
0.32854953 -0.029023811 1.2190001 255 127 0 255
0.33087146 -0.029023811 1.2190001 255 127 0 255
0.33319336 -0.029023811 1.2190001 255 127 0 255
0.33661622 -0.029119048 1.223 255 127 0 255
0.33894572 -0.029119048 1.223 255 127 0 255
0.34127524 -0.029119048 1.223 255 127 0 255
0.34360477 -0.029119048 1.223 255 127 0 255
0.3459343 -0.029119048 1.223 255 127 0 255
0.3482638 -0.029119048 1.223 255 127 0 255
0.35174003 -0.029214289 1.2270001 255 127 0 255
0.35407716 -0.029214289 1.2270001 255 127 0 255
0.27138954 -0.026789526 1.223 255 127 0 255
0.27282384 -0.026701907 1.2190001 255 127 0 255
0.27514574 -0.026701907 1.2190001 255 127 0 255
0.2783781 -0.026789526 1.223 255 127 0 255
0.28070763 -0.026789526 1.223 255 127 0 255
0.28303716 -0.026789526 1.223 255 127 0 255
0.28443336 -0.026701907 1.2190001 255 127 0 255
0.28675526 -0.026701907 1.2190001 255 127 0 255
0.28907716 -0.026701907 1.2190001 255 127 0 255
0.29139906 -0.026701907 1.2190001 255 127 0 255
0.29372096 -0.026701907 1.2190001 255 127 0 255
0.29604289 -0.026701907 1.2190001 255 127 0 255
0.29836479 -0.026701907 1.2190001 255 127 0 255
0.30068669 -0.026701907 1.2190001 255 127 0 255
0.30300859 -0.026701907 1.2190001 255 127 0 255
0.30533049 -0.026701907 1.2190001 255 127 0 255
0.30765241 -0.026701907 1.2190001 255 127 0 255
0.30997431 -0.026701907 1.2190001 255 127 0 255
0.31229621 -0.026701907 1.2190001 255 127 0 255
0.31461811 -0.026701907 1.2190001 255 127 0 255
0.31694001 -0.026701907 1.2190001 255 127 0 255
0.31926194 -0.026701907 1.2190001 255 127 0 255
0.32158384 -0.026701907 1.2190001 255 127 0 255
0.32390574 -0.026701907 1.2190001 255 127 0 255
0.32622764 -0.026701907 1.2190001 255 127 0 255
0.32854953 -0.026701907 1.2190001 255 127 0 255
0.33087146 -0.026701907 1.2190001 255 127 0 255
0.33319336 -0.026701907 1.2190001 255 127 0 255
0.33661622 -0.026789526 1.223 255 127 0 255
0.33894572 -0.026789526 1.223 255 127 0 255
0.34127524 -0.026789526 1.223 255 127 0 255
0.34360477 -0.026789526 1.223 255 127 0 255
0.3459343 -0.026789526 1.223 255 127 0 255
0.3482638 -0.026789526 1.223 255 127 0 255
0.35174003 -0.026877144 1.2270001 255 127 0 255
0.35407716 -0.026877144 1.2270001 255 127 0 255
0.27282384 -0.024380002 1.2190001 255 127 0 255
0.27514574 -0.024380002 1.2190001 255 127 0 255
0.2783781 -0.024460001 1.223 255 127 0 255
0.28162575 -0.024540002 1.2270001 255 127 0 255
0.28303716 -0.024460001 1.223 255 127 0 255
0.28536668 -0.024460001 1.223 255 127 0 255
0.28769621 -0.024460001 1.223 255 127 0 255
0.29002571 -0.024460001 1.223 255 127 0 255
0.29139906 -0.024380002 1.2190001 255 127 0 255
0.29372096 -0.024380002 1.2190001 255 127 0 255
0.29604289 -0.024380002 1.2190001 255 127 0 255
0.29836479 -0.024380002 1.2190001 255 127 0 255
0.30068669 -0.024380002 1.2190001 255 127 0 255
0.30300859 -0.024380002 1.2190001 255 127 0 255
0.30533049 -0.024380002 1.2190001 255 127 0 255
0.30765241 -0.024380002 1.2190001 255 127 0 255
0.30997431 -0.024380002 1.2190001 255 127 0 255
0.31229621 -0.024380002 1.2190001 255 127 0 255
0.31461811 -0.024380002 1.2190001 255 127 0 255
0.31694001 -0.024380002 1.2190001 255 127 0 255
0.31926194 -0.024380002 1.2190001 255 127 0 255
0.32158384 -0.024380002 1.2190001 255 127 0 255
0.32496858 -0.024460001 1.223 255 127 0 255
0.3272981 -0.024460001 1.223 255 127 0 255
0.32962763 -0.024460001 1.223 255 127 0 255
0.33195716 -0.024460001 1.223 255 127 0 255
0.33428666 -0.024460001 1.223 255 127 0 255
0.33661622 -0.024460001 1.223 255 127 0 255
0.33894572 -0.024460001 1.223 255 127 0 255
0.34127524 -0.024460001 1.223 255 127 0 255
0.34360477 -0.024460001 1.223 255 127 0 255
0.3459343 -0.024460001 1.223 255 127 0 255
0.3482638 -0.024460001 1.223 255 127 0 255
0.35174003 -0.024540002 1.2270001 255 127 0 255
0.35407716 -0.024540002 1.2270001 255 127 0 255
0.27695146 -0.022202859 1.2270001 255 127 0 255
0.27928859 -0.022202859 1.2270001 255 127 0 255
0.28162575 -0.022202859 1.2270001 255 127 0 255
0.28396291 -0.022202859 1.2270001 255 127 0 255
0.2863 -0.022202859 1.2270001 255 127 0 255
0.28863716 -0.022202859 1.2270001 255 127 0 255
0.29097432 -0.022202859 1.2270001 255 127 0 255
0.29235527 -0.022130478 1.223 255 127 0 255
0.29468477 -0.022130478 1.223 255 127 0 255
0.2970143 -0.022130478 1.223 255 127 0 255
0.29934382 -0.022130478 1.223 255 127 0 255
0.30167335 -0.022130478 1.223 255 127 0 255
0.30300859 -0.022058096 1.2190001 255 127 0 255
0.30533049 -0.022058096 1.2190001 255 127 0 255
0.30866191 -0.022130478 1.223 255 127 0 255
0.31099144 -0.022130478 1.223 255 127 0 255
0.31332093 -0.022130478 1.223 255 127 0 255
0.31565049 -0.022130478 1.223 255 127 0 255
0.31798002 -0.022130478 1.223 255 127 0 255
0.32030952 -0.022130478 1.223 255 127 0 255
0.32263908 -0.022130478 1.223 255 127 0 255
0.32496858 -0.022130478 1.223 255 127 0 255
0.3272981 -0.022130478 1.223 255 127 0 255
0.32962763 -0.022130478 1.223 255 127 0 255
0.33195716 -0.022130478 1.223 255 127 0 255
0.33538005 -0.022202859 1.2270001 255 127 0 255
0.33661622 -0.022130478 1.223 255 127 0 255
0.33894572 -0.022130478 1.223 255 127 0 255
0.34127524 -0.022130478 1.223 255 127 0 255
0.34360477 -0.022130478 1.223 255 127 0 255
0.3459343 -0.022130478 1.223 255 127 0 255
0.3482638 -0.022130478 1.223 255 127 0 255
0.35174003 -0.022202859 1.2270001 255 127 0 255
0.27695146 -0.019865716 1.2270001 255 127 0 255
0.27928859 -0.019865716 1.2270001 255 127 0 255
0.28162575 -0.019865716 1.2270001 255 127 0 255
0.28396291 -0.019865716 1.2270001 255 127 0 255
0.2863 -0.019865716 1.2270001 255 127 0 255
0.28863716 -0.019865716 1.2270001 255 127 0 255
0.29097432 -0.019865716 1.2270001 255 127 0 255
0.29331145 -0.019865716 1.2270001 255 127 0 255
0.2956486 -0.019865716 1.2270001 255 127 0 255
0.29798576 -0.019865716 1.2270001 255 127 0 255
0.30032286 -0.019865716 1.2270001 255 127 0 255
0.30167335 -0.019800952 1.223 255 127 0 255
0.30400285 -0.019800952 1.223 255 127 0 255
0.30633238 -0.019800952 1.223 255 127 0 255
0.30866191 -0.019800952 1.223 255 127 0 255
0.31099144 -0.019800952 1.223 255 127 0 255
0.31332093 -0.019800952 1.223 255 127 0 255
0.31565049 -0.019800952 1.223 255 127 0 255
0.31798002 -0.019800952 1.223 255 127 0 255
0.32030952 -0.019800952 1.223 255 127 0 255
0.32369432 -0.019865716 1.2270001 255 127 0 255
0.32603148 -0.019865716 1.2270001 255 127 0 255
0.32836857 -0.019865716 1.2270001 255 127 0 255
0.33070573 -0.019865716 1.2270001 255 127 0 255
0.33304289 -0.019865716 1.2270001 255 127 0 255
0.33538005 -0.019865716 1.2270001 255 127 0 255
0.33771718 -0.019865716 1.2270001 255 127 0 255
0.3400543 -0.019865716 1.2270001 255 127 0 255
0.34239146 -0.019865716 1.2270001 255 127 0 255
0.29097432 -0.017528573 1.2270001 255 127 0 255
0.29331145 -0.017528573 1.2270001 255 127 0 255
0.30266002 -0.017528573 1.2270001 255 127 0 255
0.30499718 -0.017528573 1.2270001 255 127 0 255
0.3073343 -0.017528573 1.2270001 255 127 0 255
0.30967146 -0.017528573 1.2270001 255 127 0 255
0.31200862 -0.017528573 1.2270001 255 127 0 255
0.31434572 -0.017528573 1.2270001 255 127 0 255
0.31668288 -0.017528573 1.2270001 255 127 0 255
0.31902003 -0.017528573 1.2270001 255 127 0 255
0.32135716 -0.017528573 1.2270001 255 127 0 255
0.32369432 -0.017528573 1.2270001 255 127 0 255
0.32603148 -0.017528573 1.2270001 255 127 0 255
0.32836857 -0.017528573 1.2270001 255 127 0 255
0.3073343 -0.015191429 1.2270001 255 127 0 255
0 0 0 1 0 0 0 1 0 0 0 1 0 0 0 0 0 705 1 0 0
