ply
format ascii 1.0
comment PCL generated
element vertex 765
property float x
property float y
property float z
property uchar red
property uchar green
property uchar blue
property uchar alpha
element camera 1
property float view_px
property float view_py
property float view_pz
property float x_axisx
property float x_axisy
property float x_axisz
property float y_axisx
property float y_axisy
property float y_axisz
property float z_axisx
property float z_axisy
property float z_axisz
property float focal
property float scalex
property float scaley
property float centerx
property float centery
property int viewportx
property int viewporty
property float k1
property float k2
end_header
0.18206383 -0.30425432 1.2830001 152 78 163 255
0.18450764 -0.30425432 1.2830001 152 78 163 255
0.18622287 -0.30306858 1.2780001 152 78 163 255
0.18865715 -0.30306858 1.2780001 152 78 163 255
0.19109143 -0.30306858 1.2780001 152 78 163 255
0.19352572 -0.30306858 1.2780001 152 78 163 255
0.19596003 -0.30306858 1.2780001 152 78 163 255
0.19917049 -0.30425432 1.2830001 152 78 163 255
0.2008286 -0.30306858 1.2780001 152 78 163 255
0.20326288 -0.30306858 1.2780001 152 78 163 255
0.20569716 -0.30306858 1.2780001 152 78 163 255
0.20894574 -0.30425432 1.2830001 152 78 163 255
0.17962001 -0.3018105 1.2830001 152 78 163 255
0.1813543 -0.30063429 1.2780001 152 78 163 255
0.18378858 -0.30063429 1.2780001 152 78 163 255
0.18549427 -0.29945809 1.273 152 78 163 255
0.18791905 -0.29945809 1.273 152 78 163 255
0.19034381 -0.29945809 1.273 152 78 163 255
0.19276857 -0.29945809 1.273 152 78 163 255
0.19519334 -0.29945809 1.273 152 78 163 255
0.19761808 -0.29945809 1.273 152 78 163 255
0.20004286 -0.29945809 1.273 152 78 163 255
0.20246762 -0.29945809 1.273 152 78 163 255
0.20569716 -0.30063429 1.2780001 152 78 163 255
0.20813145 -0.30063429 1.2780001 152 78 163 255
0.21056573 -0.30063429 1.2780001 152 78 163 255
0.17717621 -0.29936668 1.2830001 152 78 163 255
0.17962001 -0.29936668 1.2830001 152 78 163 255
0.1813543 -0.29820001 1.2780001 152 78 163 255
0.18306953 -0.29703334 1.273 152 78 163 255
0.18549427 -0.29703334 1.273 152 78 163 255
0.18791905 -0.29703334 1.273 152 78 163 255
0.19034381 -0.29703334 1.273 152 78 163 255
0.19276857 -0.29703334 1.273 152 78 163 255
0.19519334 -0.29703334 1.273 152 78 163 255
0.19761808 -0.29703334 1.273 152 78 163 255
0.20004286 -0.29703334 1.273 152 78 163 255
0.20246762 -0.29703334 1.273 152 78 163 255
0.20489237 -0.29703334 1.273 152 78 163 255
0.20731714 -0.29703334 1.273 152 78 163 255
0.21056573 -0.29820001 1.2780001 152 78 163 255
0.17717621 -0.29692286 1.2830001 152 78 163 255
0.17892002 -0.29576573 1.2780001 152 78 163 255
0.18064477 -0.29460856 1.273 152 78 163 255
0.18306953 -0.29460856 1.273 152 78 163 255
0.18549427 -0.29460856 1.273 152 78 163 255
0.18791905 -0.29460856 1.273 152 78 163 255
0.19034381 -0.29460856 1.273 152 78 163 255
0.19276857 -0.29460856 1.273 152 78 163 255
0.19519334 -0.29460856 1.273 152 78 163 255
0.19761808 -0.29460856 1.273 152 78 163 255
0.20004286 -0.29460856 1.273 152 78 163 255
0.20246762 -0.29460856 1.273 152 78 163 255
0.20489237 -0.29460856 1.273 152 78 163 255
0.20731714 -0.29460856 1.273 152 78 163 255
0.21056573 -0.29576573 1.2780001 152 78 163 255
0.21383335 -0.29692286 1.2830001 152 78 163 255
0.17473239 -0.29447907 1.2830001 152 78 163 255
0.17717621 -0.29447907 1.2830001 152 78 163 255
0.17892002 -0.29333144 1.2780001 152 78 163 255
0.18064477 -0.29218382 1.273 152 78 163 255
0.18306953 -0.29218382 1.273 152 78 163 255
0.18549427 -0.29218382 1.273 152 78 163 255
0.18791905 -0.29218382 1.273 152 78 163 255
0.19034381 -0.29218382 1.273 152 78 163 255
0.19276857 -0.29218382 1.273 152 78 163 255
0.19519334 -0.29218382 1.273 152 78 163 255
0.19761808 -0.29218382 1.273 152 78 163 255
0.20004286 -0.29218382 1.273 152 78 163 255
0.20246762 -0.29218382 1.273 152 78 163 255
0.20489237 -0.29218382 1.273 152 78 163 255
0.20731714 -0.29218382 1.273 152 78 163 255
0.20974191 -0.29218382 1.273 152 78 163 255
0.21383335 -0.29447907 1.2830001 152 78 163 255
0.17473239 -0.29203525 1.2830001 152 78 163 255
0.17648572 -0.29089716 1.2780001 152 78 163 255
0.17892002 -0.29089716 1.2780001 152 78 163 255
0.18064477 -0.28975904 1.273 152 78 163 255
0.18306953 -0.28975904 1.273 152 78 163 255
0.18549427 -0.28975904 1.273 152 78 163 255
0.18791905 -0.28975904 1.273 152 78 163 255
0.19034381 -0.28975904 1.273 152 78 163 255
0.19276857 -0.28975904 1.273 152 78 163 255
0.19519334 -0.28975904 1.273 152 78 163 255
0.19761808 -0.28975904 1.273 152 78 163 255
0.20004286 -0.28975904 1.273 152 78 163 255
0.20246762 -0.28975904 1.273 152 78 163 255
0.20489237 -0.28975904 1.273 152 78 163 255
0.20731714 -0.28975904 1.273 152 78 163 255
0.20974191 -0.28975904 1.273 152 78 163 255
0.21383335 -0.29203525 1.2830001 152 78 163 255
0.17648572 -0.28846288 1.2780001 152 78 163 255
0.17821999 -0.28733426 1.273 152 78 163 255
0.18064477 -0.28733426 1.273 152 78 163 255
0.18306953 -0.28733426 1.273 152 78 163 255
0.18476571 -0.28620571 1.268 152 78 163 255
0.18718095 -0.28620571 1.268 152 78 163 255
0.18959619 -0.28620571 1.268 152 78 163 255
0.19201143 -0.28620571 1.268 152 78 163 255
0.19442666 -0.28620571 1.268 152 78 163 255
0.19761808 -0.28733426 1.273 152 78 163 255
0.20004286 -0.28733426 1.273 152 78 163 255
0.20246762 -0.28733426 1.273 152 78 163 255
0.20489237 -0.28733426 1.273 152 78 163 255
0.20731714 -0.28733426 1.273 152 78 163 255
0.20974191 -0.28733426 1.273 152 78 163 255
0.21300001 -0.28846288 1.2780001 152 78 163 255
0.21627715 -0.28959143 1.2830001 152 78 163 255
0.17405143 -0.28602859 1.2780001 152 78 163 255
0.17648572 -0.28602859 1.2780001 152 78 163 255
0.17821999 -0.28490952 1.273 152 78 163 255
0.18064477 -0.28490952 1.273 152 78 163 255
0.18235047 -0.28379047 1.268 152 78 163 255
0.18476571 -0.28379047 1.268 152 78 163 255
0.18718095 -0.28379047 1.268 152 78 163 255
0.18959619 -0.28379047 1.268 152 78 163 255
0.19201143 -0.28379047 1.268 152 78 163 255
0.19442666 -0.28379047 1.268 152 78 163 255
0.19684191 -0.28379047 1.268 152 78 163 255
0.20004286 -0.28490952 1.273 152 78 163 255
0.20246762 -0.28490952 1.273 152 78 163 255
0.20489237 -0.28490952 1.273 152 78 163 255
0.20731714 -0.28490952 1.273 152 78 163 255
0.20974191 -0.28490952 1.273 152 78 163 255
0.21300001 -0.28602859 1.2780001 152 78 163 255
0.21543431 -0.28602859 1.2780001 152 78 163 255
0.17405143 -0.28359431 1.2780001 152 78 163 255
0.17579524 -0.28248477 1.273 152 78 163 255
0.17821999 -0.28248477 1.273 152 78 163 255
0.17993525 -0.28137523 1.268 152 78 163 255
0.18235047 -0.28137523 1.268 152 78 163 255
0.18476571 -0.28137523 1.268 152 78 163 255
0.18718095 -0.28137523 1.268 152 78 163 255
0.18959619 -0.28137523 1.268 152 78 163 255
0.19201143 -0.28137523 1.268 152 78 163 255
0.19442666 -0.28137523 1.268 152 78 163 255
0.19684191 -0.28137523 1.268 152 78 163 255
0.19925714 -0.28137523 1.268 152 78 163 255
0.20167238 -0.28137523 1.268 152 78 163 255
0.20408763 -0.28137523 1.268 152 78 163 255
0.20731714 -0.28248477 1.273 152 78 163 255
0.20974191 -0.28248477 1.273 152 78 163 255
0.21300001 -0.28359431 1.2780001 152 78 163 255
0.21543431 -0.28359431 1.2780001 152 78 163 255
0.17405143 -0.28116003 1.2780001 152 78 163 255
0.17579524 -0.28005999 1.273 152 78 163 255
0.17751999 -0.27895999 1.268 152 78 163 255
0.17993525 -0.27895999 1.268 152 78 163 255
0.18235047 -0.27895999 1.268 152 78 163 255
0.18476571 -0.27895999 1.268 152 78 163 255
0.18718095 -0.27895999 1.268 152 78 163 255
0.18959619 -0.27895999 1.268 152 78 163 255
0.19201143 -0.27895999 1.268 152 78 163 255
0.19442666 -0.27895999 1.268 152 78 163 255
0.19684191 -0.27895999 1.268 152 78 163 255
0.19925714 -0.27895999 1.268 152 78 163 255
0.20167238 -0.27895999 1.268 152 78 163 255
0.20408763 -0.27895999 1.268 152 78 163 255
0.20731714 -0.28005999 1.273 152 78 163 255
0.20974191 -0.28005999 1.273 152 78 163 255
0.21216665 -0.28005999 1.273 152 78 163 255
0.21543431 -0.28116003 1.2780001 152 78 163 255
0.17405143 -0.27872571 1.2780001 152 78 163 255
0.17579524 -0.27763525 1.273 152 78 163 255
0.17751999 -0.27654478 1.268 152 78 163 255
0.17993525 -0.27654478 1.268 152 78 163 255
0.18235047 -0.27654478 1.268 152 78 163 255
0.18476571 -0.27654478 1.268 152 78 163 255
0.18718095 -0.27654478 1.268 152 78 163 255
0.18959619 -0.27654478 1.268 152 78 163 255
0.19201143 -0.27654478 1.268 152 78 163 255
0.19442666 -0.27654478 1.268 152 78 163 255
0.19684191 -0.27654478 1.268 152 78 163 255
0.19925714 -0.27654478 1.268 152 78 163 255
0.20167238 -0.27654478 1.268 152 78 163 255
0.20408763 -0.27654478 1.268 152 78 163 255
0.20731714 -0.27763525 1.273 152 78 163 255
0.20974191 -0.27763525 1.273 152 78 163 255
0.21216665 -0.27763525 1.273 152 78 163 255
0.21543431 -0.27872571 1.2780001 152 78 163 255
0.17405143 -0.27629143 1.2780001 152 78 163 255
0.17579524 -0.27521047 1.273 152 78 163 255
0.17751999 -0.27412951 1.268 152 78 163 255
0.17993525 -0.27412951 1.268 152 78 163 255
0.18235047 -0.27412951 1.268 152 78 163 255
0.18476571 -0.27412951 1.268 152 78 163 255
0.18718095 -0.27412951 1.268 152 78 163 255
0.18959619 -0.27412951 1.268 152 78 163 255
0.19201143 -0.27412951 1.268 152 78 163 255
0.19442666 -0.27412951 1.268 152 78 163 255
0.19684191 -0.27412951 1.268 152 78 163 255
0.19925714 -0.27412951 1.268 152 78 163 255
0.20167238 -0.27412951 1.268 152 78 163 255
0.20408763 -0.27412951 1.268 152 78 163 255
0.20650285 -0.27412951 1.268 152 78 163 255
0.20974191 -0.27521047 1.273 152 78 163 255
0.21216665 -0.27521047 1.273 152 78 163 255
0.21543431 -0.27629143 1.2780001 152 78 163 255
0.17405143 -0.27385715 1.2780001 152 78 163 255
0.17510477 -0.27171427 1.268 152 78 163 255
0.17751999 -0.27171427 1.268 152 78 163 255
0.17993525 -0.27171427 1.268 152 78 163 255
0.18235047 -0.27171427 1.268 152 78 163 255
0.18476571 -0.27171427 1.268 152 78 163 255
0.18718095 -0.27171427 1.268 152 78 163 255
0.18959619 -0.27171427 1.268 152 78 163 255
0.19201143 -0.27171427 1.268 152 78 163 255
0.19442666 -0.27171427 1.268 152 78 163 255
0.19684191 -0.27171427 1.268 152 78 163 255
0.19925714 -0.27171427 1.268 152 78 163 255
0.20167238 -0.27171427 1.268 152 78 163 255
0.20408763 -0.27171427 1.268 152 78 163 255
0.20650285 -0.27171427 1.268 152 78 163 255
0.20974191 -0.27278569 1.273 152 78 163 255
0.21216665 -0.27278569 1.273 152 78 163 255
0.21543431 -0.27385715 1.2780001 152 78 163 255
0.17405143 -0.27142286 1.2780001 152 78 163 255
0.17510477 -0.26929906 1.268 152 78 163 255
0.17751999 -0.26929906 1.268 152 78 163 255
0.17993525 -0.26929906 1.268 152 78 163 255
0.18235047 -0.26929906 1.268 152 78 163 255
0.18476571 -0.26929906 1.268 152 78 163 255
0.18718095 -0.26929906 1.268 152 78 163 255
0.18959619 -0.26929906 1.268 152 78 163 255
0.19201143 -0.26929906 1.268 152 78 163 255
0.19442666 -0.26929906 1.268 152 78 163 255
0.19684191 -0.26929906 1.268 152 78 163 255
0.19925714 -0.26929906 1.268 152 78 163 255
0.20167238 -0.26929906 1.268 152 78 163 255
0.20408763 -0.26929906 1.268 152 78 163 255
0.20650285 -0.26929906 1.268 152 78 163 255
0.20974191 -0.27036095 1.273 152 78 163 255
0.21216665 -0.27036095 1.273 152 78 163 255
0.21543431 -0.27142286 1.2780001 152 78 163 255
0.17405143 -0.26898858 1.2780001 152 78 163 255
0.17510477 -0.26688379 1.268 152 78 163 255
0.17751999 -0.26688379 1.268 152 78 163 255
0.17993525 -0.26688379 1.268 152 78 163 255
0.18235047 -0.26688379 1.268 152 78 163 255
0.18476571 -0.26688379 1.268 152 78 163 255
0.18718095 -0.26688379 1.268 152 78 163 255
0.18959619 -0.26688379 1.268 152 78 163 255
0.19201143 -0.26688379 1.268 152 78 163 255
0.19442666 -0.26688379 1.268 152 78 163 255
0.19684191 -0.26688379 1.268 152 78 163 255
0.19925714 -0.26688379 1.268 152 78 163 255
0.20167238 -0.26688379 1.268 152 78 163 255
0.20408763 -0.26688379 1.268 152 78 163 255
0.20650285 -0.26688379 1.268 152 78 163 255
0.20891809 -0.26688379 1.268 152 78 163 255
0.21216665 -0.2679362 1.273 152 78 163 255
0.21543431 -0.26898858 1.2780001 152 78 163 255
0.17510477 -0.26446858 1.268 152 78 163 255
0.17751999 -0.26446858 1.268 152 78 163 255
0.17993525 -0.26446858 1.268 152 78 163 255
0.18235047 -0.26446858 1.268 152 78 163 255
0.18476571 -0.26446858 1.268 152 78 163 255
0.18718095 -0.26446858 1.268 152 78 163 255
0.18959619 -0.26446858 1.268 152 78 163 255
0.19201143 -0.26446858 1.268 152 78 163 255
0.19442666 -0.26446858 1.268 152 78 163 255
0.19684191 -0.26446858 1.268 152 78 163 255
0.19925714 -0.26446858 1.268 152 78 163 255
0.20167238 -0.26446858 1.268 152 78 163 255
0.20408763 -0.26446858 1.268 152 78 163 255
0.20650285 -0.26446858 1.268 152 78 163 255
0.20891809 -0.26446858 1.268 152 78 163 255
0.21216665 -0.26551142 1.273 152 78 163 255
0.21543431 -0.2665543 1.2780001 152 78 163 255
0.17510477 -0.26205334 1.268 152 78 163 255
0.17751999 -0.26205334 1.268 152 78 163 255
0.17993525 -0.26205334 1.268 152 78 163 255
0.18235047 -0.26205334 1.268 152 78 163 255
0.18476571 -0.26205334 1.268 152 78 163 255
0.18718095 -0.26205334 1.268 152 78 163 255
0.18959619 -0.26205334 1.268 152 78 163 255
0.19201143 -0.26205334 1.268 152 78 163 255
0.19442666 -0.26205334 1.268 152 78 163 255
0.19684191 -0.26205334 1.268 152 78 163 255
0.19925714 -0.26205334 1.268 152 78 163 255
0.20167238 -0.26205334 1.268 152 78 163 255
0.20408763 -0.26205334 1.268 152 78 163 255
0.20650285 -0.26205334 1.268 152 78 163 255
0.20891809 -0.26205334 1.268 152 78 163 255
0.21216665 -0.26308665 1.273 152 78 163 255
0.21543431 -0.26412001 1.2780001 152 78 163 255
0.17337048 -0.2606619 1.273 152 78 163 255
0.17579524 -0.2606619 1.273 152 78 163 255
0.17751999 -0.2596381 1.268 152 78 163 255
0.17993525 -0.2596381 1.268 152 78 163 255
0.18235047 -0.2596381 1.268 152 78 163 255
0.18476571 -0.2596381 1.268 152 78 163 255
0.18718095 -0.2596381 1.268 152 78 163 255
0.18959619 -0.2596381 1.268 152 78 163 255
0.19201143 -0.2596381 1.268 152 78 163 255
0.19442666 -0.2596381 1.268 152 78 163 255
0.19684191 -0.2596381 1.268 152 78 163 255
0.19925714 -0.2596381 1.268 152 78 163 255
0.20167238 -0.2596381 1.268 152 78 163 255
0.20408763 -0.2596381 1.268 152 78 163 255
0.20650285 -0.2596381 1.268 152 78 163 255
0.20974191 -0.2606619 1.273 152 78 163 255
0.21216665 -0.2606619 1.273 152 78 163 255
0.17337048 -0.25823712 1.273 152 78 163 255
0.17510477 -0.25722286 1.268 152 78 163 255
0.17751999 -0.25722286 1.268 152 78 163 255
0.17993525 -0.25722286 1.268 152 78 163 255
0.18177524 -0.25641146 1.2640001 152 78 163 255
0.18418287 -0.25641146 1.2640001 152 78 163 255
0.18718095 -0.25722286 1.268 152 78 163 255
0.18959619 -0.25722286 1.268 152 78 163 255
0.19201143 -0.25722286 1.268 152 78 163 255
0.19442666 -0.25722286 1.268 152 78 163 255
0.19684191 -0.25722286 1.268 152 78 163 255
0.19925714 -0.25722286 1.268 152 78 163 255
0.20167238 -0.25722286 1.268 152 78 163 255
0.20408763 -0.25722286 1.268 152 78 163 255
0.20650285 -0.25722286 1.268 152 78 163 255
0.20891809 -0.25722286 1.268 152 78 163 255
0.21216665 -0.25823712 1.273 152 78 163 255
0.21459143 -0.25823712 1.273 152 78 163 255
0.17337048 -0.25581238 1.273 152 78 163 255
0.17510477 -0.25480762 1.268 152 78 163 255
0.17751999 -0.25480762 1.268 152 78 163 255
0.17993525 -0.25480762 1.268 152 78 163 255
0.18177524 -0.25400382 1.2640001 152 78 163 255
0.18418287 -0.25400382 1.2640001 152 78 163 255
0.18718095 -0.25480762 1.268 152 78 163 255
0.18959619 -0.25480762 1.268 152 78 163 255
0.19201143 -0.25480762 1.268 152 78 163 255
0.19442666 -0.25480762 1.268 152 78 163 255
0.19684191 -0.25480762 1.268 152 78 163 255
0.19925714 -0.25480762 1.268 152 78 163 255
0.20167238 -0.25480762 1.268 152 78 163 255
0.20408763 -0.25480762 1.268 152 78 163 255
0.20650285 -0.25480762 1.268 152 78 163 255
0.20891809 -0.25480762 1.268 152 78 163 255
0.21216665 -0.25581238 1.273 152 78 163 255
0.21459143 -0.25581238 1.273 152 78 163 255
0.17337048 -0.25338763 1.273 152 78 163 255
0.17510477 -0.25239238 1.268 152 78 163 255
0.17751999 -0.25239238 1.268 152 78 163 255
0.17993525 -0.25239238 1.268 152 78 163 255
0.18177524 -0.25159621 1.2640001 152 78 163 255
0.18418287 -0.25159621 1.2640001 152 78 163 255
0.18659049 -0.25159621 1.2640001 152 78 163 255
0.18959619 -0.25239238 1.268 152 78 163 255
0.19201143 -0.25239238 1.268 152 78 163 255
0.19442666 -0.25239238 1.268 152 78 163 255
0.19684191 -0.25239238 1.268 152 78 163 255
0.19925714 -0.25239238 1.268 152 78 163 255
0.20167238 -0.25239238 1.268 152 78 163 255
0.20408763 -0.25239238 1.268 152 78 163 255
0.20650285 -0.25239238 1.268 152 78 163 255
0.20891809 -0.25239238 1.268 152 78 163 255
0.21216665 -0.25338763 1.273 152 78 163 255
0.21459143 -0.25338763 1.273 152 78 163 255
0.17268953 -0.24997716 1.268 152 78 163 255
0.17510477 -0.24997716 1.268 152 78 163 255
0.17696001 -0.24918857 1.2640001 152 78 163 255
0.17936763 -0.24918857 1.2640001 152 78 163 255
0.18177524 -0.24918857 1.2640001 152 78 163 255
0.18418287 -0.24918857 1.2640001 152 78 163 255
0.18659049 -0.24918857 1.2640001 152 78 163 255
0.1889981 -0.24918857 1.2640001 152 78 163 255
0.19201143 -0.24997716 1.268 152 78 163 255
0.19442666 -0.24997716 1.268 152 78 163 255
0.19684191 -0.24997716 1.268 152 78 163 255
0.19925714 -0.24997716 1.268 152 78 163 255
0.20167238 -0.24997716 1.268 152 78 163 255
0.20408763 -0.24997716 1.268 152 78 163 255
0.20650285 -0.24997716 1.268 152 78 163 255
0.20891809 -0.24997716 1.268 152 78 163 255
0.21216665 -0.25096285 1.273 152 78 163 255
0.21459143 -0.25096285 1.273 152 78 163 255
0.21701619 -0.25096285 1.273 152 78 163 255
0.17268953 -0.2475619 1.268 152 78 163 255
0.17510477 -0.2475619 1.268 152 78 163 255
0.17626001 -0.24580476 1.2590001 152 78 163 255
0.1786581 -0.24580476 1.2590001 152 78 163 255
0.18177524 -0.24678098 1.2640001 152 78 163 255
0.18418287 -0.24678098 1.2640001 152 78 163 255
0.18659049 -0.24678098 1.2640001 152 78 163 255
0.1889981 -0.24678098 1.2640001 152 78 163 255
0.19201143 -0.2475619 1.268 152 78 163 255
0.19442666 -0.2475619 1.268 152 78 163 255
0.19684191 -0.2475619 1.268 152 78 163 255
0.19925714 -0.2475619 1.268 152 78 163 255
0.20167238 -0.2475619 1.268 152 78 163 255
0.20408763 -0.2475619 1.268 152 78 163 255
0.20650285 -0.2475619 1.268 152 78 163 255
0.20891809 -0.2475619 1.268 152 78 163 255
0.21133332 -0.2475619 1.268 152 78 163 255
0.21459143 -0.24853809 1.273 152 78 163 255
0.21701619 -0.24853809 1.273 152 78 163 255
0.17268953 -0.24514666 1.268 152 78 163 255
0.17510477 -0.24514666 1.268 152 78 163 255
0.17626001 -0.24340667 1.2590001 152 78 163 255
0.1786581 -0.24340667 1.2590001 152 78 163 255
0.1810562 -0.24340667 1.2590001 152 78 163 255
0.18345429 -0.24340667 1.2590001 152 78 163 255
0.18659049 -0.24437334 1.2640001 152 78 163 255
0.1889981 -0.24437334 1.2640001 152 78 163 255
0.19201143 -0.24514666 1.268 152 78 163 255
0.19442666 -0.24514666 1.268 152 78 163 255
0.19684191 -0.24514666 1.268 152 78 163 255
0.19925714 -0.24514666 1.268 152 78 163 255
0.20167238 -0.24514666 1.268 152 78 163 255
0.20408763 -0.24514666 1.268 152 78 163 255
0.20650285 -0.24514666 1.268 152 78 163 255
0.20891809 -0.24514666 1.268 152 78 163 255
0.21133332 -0.24514666 1.268 152 78 163 255
0.21459143 -0.24611333 1.273 152 78 163 255
0.21701619 -0.24611333 1.273 152 78 163 255
0.17268953 -0.24273142 1.268 152 78 163 255
0.17510477 -0.24273142 1.268 152 78 163 255
0.17696001 -0.24196573 1.2640001 152 78 163 255
0.17936763 -0.24196573 1.2640001 152 78 163 255
0.1810562 -0.24100858 1.2590001 152 78 163 255
0.18345429 -0.24100858 1.2590001 152 78 163 255
0.18659049 -0.24196573 1.2640001 152 78 163 255
0.1889981 -0.24196573 1.2640001 152 78 163 255
0.19201143 -0.24273142 1.268 152 78 163 255
0.19442666 -0.24273142 1.268 152 78 163 255
0.19684191 -0.24273142 1.268 152 78 163 255
0.19925714 -0.24273142 1.268 152 78 163 255
0.20167238 -0.24273142 1.268 152 78 163 255
0.20408763 -0.24273142 1.268 152 78 163 255
0.20650285 -0.24273142 1.268 152 78 163 255
0.20891809 -0.24273142 1.268 152 78 163 255
0.21133332 -0.24273142 1.268 152 78 163 255
0.21459143 -0.24368857 1.273 152 78 163 255
0.21701619 -0.24368857 1.273 152 78 163 255
0.17510477 -0.24031618 1.268 152 78 163 255
0.17696001 -0.2395581 1.2640001 152 78 163 255
0.17936763 -0.2395581 1.2640001 152 78 163 255
0.18177524 -0.2395581 1.2640001 152 78 163 255
0.18418287 -0.2395581 1.2640001 152 78 163 255
0.18659049 -0.2395581 1.2640001 152 78 163 255
0.18959619 -0.24031618 1.268 152 78 163 255
0.19201143 -0.24031618 1.268 152 78 163 255
0.19442666 -0.24031618 1.268 152 78 163 255
0.19684191 -0.24031618 1.268 152 78 163 255
0.19925714 -0.24031618 1.268 152 78 163 255
0.20167238 -0.24031618 1.268 152 78 163 255
0.20408763 -0.24031618 1.268 152 78 163 255
0.20650285 -0.24031618 1.268 152 78 163 255
0.20891809 -0.24031618 1.268 152 78 163 255
0.21133332 -0.24031618 1.268 152 78 163 255
0.21459143 -0.24126381 1.273 152 78 163 255
0.21701619 -0.24126381 1.273 152 78 163 255
0.17510477 -0.23790096 1.268 152 78 163 255
0.17696001 -0.23715049 1.2640001 152 78 163 255
0.17936763 -0.23715049 1.2640001 152 78 163 255
0.18177524 -0.23715049 1.2640001 152 78 163 255
0.18418287 -0.23715049 1.2640001 152 78 163 255
0.18659049 -0.23715049 1.2640001 152 78 163 255
0.18959619 -0.23790096 1.268 152 78 163 255
0.19201143 -0.23790096 1.268 152 78 163 255
0.19442666 -0.23790096 1.268 152 78 163 255
0.19684191 -0.23790096 1.268 152 78 163 255
0.19925714 -0.23790096 1.268 152 78 163 255
0.20167238 -0.23790096 1.268 152 78 163 255
0.20344383 -0.23715049 1.2640001 152 78 163 255
0.20585144 -0.23715049 1.2640001 152 78 163 255
0.20891809 -0.23790096 1.268 152 78 163 255
0.21133332 -0.23790096 1.268 152 78 163 255
0.21374857 -0.23790096 1.268 152 78 163 255
0.17510477 -0.2354857 1.268 152 78 163 255
0.17696001 -0.23474286 1.2640001 152 78 163 255
0.17936763 -0.23474286 1.2640001 152 78 163 255
0.18177524 -0.23474286 1.2640001 152 78 163 255
0.18418287 -0.23474286 1.2640001 152 78 163 255
0.18659049 -0.23474286 1.2640001 152 78 163 255
0.18959619 -0.2354857 1.268 152 78 163 255
0.19201143 -0.2354857 1.268 152 78 163 255
0.19442666 -0.2354857 1.268 152 78 163 255
0.19684191 -0.2354857 1.268 152 78 163 255
0.19925714 -0.2354857 1.268 152 78 163 255
0.2010362 -0.23474286 1.2640001 152 78 163 255
0.20344383 -0.23474286 1.2640001 152 78 163 255
0.20585144 -0.23474286 1.2640001 152 78 163 255
0.20825906 -0.23474286 1.2640001 152 78 163 255
0.21133332 -0.2354857 1.268 152 78 163 255
0.21374857 -0.2354857 1.268 152 78 163 255
0.17268953 -0.23307048 1.268 152 78 163 255
0.1745524 -0.23233524 1.2640001 152 78 163 255
0.17696001 -0.23233524 1.2640001 152 78 163 255
0.17936763 -0.23233524 1.2640001 152 78 163 255
0.18177524 -0.23233524 1.2640001 152 78 163 255
0.18418287 -0.23233524 1.2640001 152 78 163 255
0.18659049 -0.23233524 1.2640001 152 78 163 255
0.1889981 -0.23233524 1.2640001 152 78 163 255
0.19201143 -0.23307048 1.268 152 78 163 255
0.19442666 -0.23307048 1.268 152 78 163 255
0.19684191 -0.23307048 1.268 152 78 163 255
0.19925714 -0.23307048 1.268 152 78 163 255
0.2010362 -0.23233524 1.2640001 152 78 163 255
0.20344383 -0.23233524 1.2640001 152 78 163 255
0.20585144 -0.23233524 1.2640001 152 78 163 255
0.20825906 -0.23233524 1.2640001 152 78 163 255
0.21133332 -0.23307048 1.268 152 78 163 255
0.21374857 -0.23307048 1.268 152 78 163 255
0.17268953 -0.23065524 1.268 152 78 163 255
0.1745524 -0.22992763 1.2640001 152 78 163 255
0.17696001 -0.22992763 1.2640001 152 78 163 255
0.1786581 -0.22901811 1.2590001 152 78 163 255
0.1810562 -0.22901811 1.2590001 152 78 163 255
0.18345429 -0.22901811 1.2590001 152 78 163 255
0.18659049 -0.22992763 1.2640001 152 78 163 255
0.1889981 -0.22992763 1.2640001 152 78 163 255
0.19140573 -0.22992763 1.2640001 152 78 163 255
0.19442666 -0.23065524 1.268 152 78 163 255
0.19684191 -0.23065524 1.268 152 78 163 255
0.19925714 -0.23065524 1.268 152 78 163 255
0.2010362 -0.22992763 1.2640001 152 78 163 255
0.20344383 -0.22992763 1.2640001 152 78 163 255
0.20585144 -0.22992763 1.2640001 152 78 163 255
0.20891809 -0.23065524 1.268 152 78 163 255
0.21133332 -0.23065524 1.268 152 78 163 255
0.17268953 -0.22824 1.268 152 78 163 255
0.1745524 -0.22752 1.2640001 152 78 163 255
0.17626001 -0.22662002 1.2590001 152 78 163 255
0.1786581 -0.22662002 1.2590001 152 78 163 255
0.1810562 -0.22662002 1.2590001 152 78 163 255
0.18345429 -0.22662002 1.2590001 152 78 163 255
0.18659049 -0.22752 1.2640001 152 78 163 255
0.1889981 -0.22752 1.2640001 152 78 163 255
0.19140573 -0.22752 1.2640001 152 78 163 255
0.19381334 -0.22752 1.2640001 152 78 163 255
0.19684191 -0.22824 1.268 152 78 163 255
0.19925714 -0.22824 1.268 152 78 163 255
0.20167238 -0.22824 1.268 152 78 163 255
0.20344383 -0.22752 1.2640001 152 78 163 255
0.20585144 -0.22752 1.2640001 152 78 163 255
0.20891809 -0.22824 1.268 152 78 163 255
0.21133332 -0.22824 1.268 152 78 163 255
0.17268953 -0.22582476 1.268 152 78 163 255
0.1745524 -0.22511239 1.2640001 152 78 163 255
0.17626001 -0.22422192 1.2590001 152 78 163 255
0.1786581 -0.22422192 1.2590001 152 78 163 255
0.1810562 -0.22422192 1.2590001 152 78 163 255
0.18345429 -0.22422192 1.2590001 152 78 163 255
0.18659049 -0.22511239 1.2640001 152 78 163 255
0.1889981 -0.22511239 1.2640001 152 78 163 255
0.19140573 -0.22511239 1.2640001 152 78 163 255
0.19381334 -0.22511239 1.2640001 152 78 163 255
0.19684191 -0.22582476 1.268 152 78 163 255
0.19925714 -0.22582476 1.268 152 78 163 255
0.20167238 -0.22582476 1.268 152 78 163 255
0.20344383 -0.22511239 1.2640001 152 78 163 255
0.20585144 -0.22511239 1.2640001 152 78 163 255
0.20891809 -0.22582476 1.268 152 78 163 255
0.21133332 -0.22582476 1.268 152 78 163 255
0.21374857 -0.22582476 1.268 152 78 163 255
0.17268953 -0.22340952 1.268 152 78 163 255
0.1745524 -0.22270477 1.2640001 152 78 163 255
0.17626001 -0.22182381 1.2590001 152 78 163 255
0.1786581 -0.22182381 1.2590001 152 78 163 255
0.1810562 -0.22182381 1.2590001 152 78 163 255
0.18345429 -0.22182381 1.2590001 152 78 163 255
0.18585238 -0.22182381 1.2590001 152 78 163 255
0.1889981 -0.22270477 1.2640001 152 78 163 255
0.19140573 -0.22270477 1.2640001 152 78 163 255
0.19381334 -0.22270477 1.2640001 152 78 163 255
0.19684191 -0.22340952 1.268 152 78 163 255
0.19925714 -0.22340952 1.268 152 78 163 255
0.20167238 -0.22340952 1.268 152 78 163 255
0.20344383 -0.22270477 1.2640001 152 78 163 255
0.20585144 -0.22270477 1.2640001 152 78 163 255
0.20891809 -0.22340952 1.268 152 78 163 255
0.21133332 -0.22340952 1.268 152 78 163 255
0.21374857 -0.22340952 1.268 152 78 163 255
0.17386191 -0.21942572 1.2590001 152 78 163 255
0.17626001 -0.21942572 1.2590001 152 78 163 255
0.1786581 -0.21942572 1.2590001 152 78 163 255
0.1810562 -0.21942572 1.2590001 152 78 163 255
0.18345429 -0.21942572 1.2590001 152 78 163 255
0.18585238 -0.21942572 1.2590001 152 78 163 255
0.18825048 -0.21942572 1.2590001 152 78 163 255
0.19140573 -0.22029716 1.2640001 152 78 163 255
0.19381334 -0.22029716 1.2640001 152 78 163 255
0.19622096 -0.22029716 1.2640001 152 78 163 255
0.19862857 -0.22029716 1.2640001 152 78 163 255
0.2010362 -0.22029716 1.2640001 152 78 163 255
0.20344383 -0.22029716 1.2640001 152 78 163 255
0.20585144 -0.22029716 1.2640001 152 78 163 255
0.20825906 -0.22029716 1.2640001 152 78 163 255
0.21133332 -0.22099429 1.268 152 78 163 255
0.21374857 -0.22099429 1.268 152 78 163 255
0.17386191 -0.21702763 1.2590001 152 78 163 255
0.17626001 -0.21702763 1.2590001 152 78 163 255
0.1786581 -0.21702763 1.2590001 152 78 163 255
0.1810562 -0.21702763 1.2590001 152 78 163 255
0.18345429 -0.21702763 1.2590001 152 78 163 255
0.18585238 -0.21702763 1.2590001 152 78 163 255
0.18825048 -0.21702763 1.2590001 152 78 163 255
0.19064859 -0.21702763 1.2590001 152 78 163 255
0.19381334 -0.21788953 1.2640001 152 78 163 255
0.19622096 -0.21788953 1.2640001 152 78 163 255
0.19862857 -0.21788953 1.2640001 152 78 163 255
0.2010362 -0.21788953 1.2640001 152 78 163 255
0.20344383 -0.21788953 1.2640001 152 78 163 255
0.20585144 -0.21788953 1.2640001 152 78 163 255
0.20825906 -0.21788953 1.2640001 152 78 163 255
0.21133332 -0.21857904 1.268 152 78 163 255
0.21374857 -0.21857904 1.268 152 78 163 255
0.17386191 -0.21462953 1.2590001 152 78 163 255
0.17626001 -0.21462953 1.2590001 152 78 163 255
0.1786581 -0.21462953 1.2590001 152 78 163 255
0.1810562 -0.21462953 1.2590001 152 78 163 255
0.18345429 -0.21462953 1.2590001 152 78 163 255
0.18585238 -0.21462953 1.2590001 152 78 163 255
0.18825048 -0.21462953 1.2590001 152 78 163 255
0.19064859 -0.21462953 1.2590001 152 78 163 255
0.19381334 -0.21548191 1.2640001 152 78 163 255
0.19622096 -0.21548191 1.2640001 152 78 163 255
0.19862857 -0.21548191 1.2640001 152 78 163 255
0.2010362 -0.21548191 1.2640001 152 78 163 255
0.20344383 -0.21548191 1.2640001 152 78 163 255
0.20585144 -0.21548191 1.2640001 152 78 163 255
0.20825906 -0.21548191 1.2640001 152 78 163 255
0.21066667 -0.21548191 1.2640001 152 78 163 255
0.17214477 -0.2130743 1.2640001 152 78 163 255
0.17386191 -0.21223144 1.2590001 152 78 163 255
0.17626001 -0.21223144 1.2590001 152 78 163 255
0.1786581 -0.21223144 1.2590001 152 78 163 255
0.1810562 -0.21223144 1.2590001 152 78 163 255
0.18345429 -0.21223144 1.2590001 152 78 163 255
0.18585238 -0.21223144 1.2590001 152 78 163 255
0.18825048 -0.21223144 1.2590001 152 78 163 255
0.19064859 -0.21223144 1.2590001 152 78 163 255
0.19304667 -0.21223144 1.2590001 152 78 163 255
0.19622096 -0.2130743 1.2640001 152 78 163 255
0.19784287 -0.21223144 1.2590001 152 78 163 255
0.20024095 -0.21223144 1.2590001 152 78 163 255
0.20263906 -0.21223144 1.2590001 152 78 163 255
0.20503716 -0.21223144 1.2590001 152 78 163 255
0.20743524 -0.21223144 1.2590001 152 78 163 255
0.21066667 -0.2130743 1.2640001 152 78 163 255
0.17214477 -0.21066667 1.2640001 152 78 163 255
0.17386191 -0.20983334 1.2590001 152 78 163 255
0.17626001 -0.20983334 1.2590001 152 78 163 255
0.1786581 -0.20983334 1.2590001 152 78 163 255
0.1810562 -0.20983334 1.2590001 152 78 163 255
0.18345429 -0.20983334 1.2590001 152 78 163 255
0.18585238 -0.20983334 1.2590001 152 78 163 255
0.18825048 -0.20983334 1.2590001 152 78 163 255
0.19064859 -0.20983334 1.2590001 152 78 163 255
0.19304667 -0.20983334 1.2590001 152 78 163 255
0.19544476 -0.20983334 1.2590001 152 78 163 255
0.19784287 -0.20983334 1.2590001 152 78 163 255
0.20024095 -0.20983334 1.2590001 152 78 163 255
0.20263906 -0.20983334 1.2590001 152 78 163 255
0.20503716 -0.20983334 1.2590001 152 78 163 255
0.20743524 -0.20983334 1.2590001 152 78 163 255
0.21066667 -0.21066667 1.2640001 152 78 163 255
0.17214477 -0.20825906 1.2640001 152 78 163 255
0.17386191 -0.20743524 1.2590001 152 78 163 255
0.17626001 -0.20743524 1.2590001 152 78 163 255
0.1786581 -0.20743524 1.2590001 152 78 163 255
0.18048097 -0.2067762 1.2550001 152 78 163 255
0.18287145 -0.2067762 1.2550001 152 78 163 255
0.18585238 -0.20743524 1.2590001 152 78 163 255
0.18825048 -0.20743524 1.2590001 152 78 163 255
0.19064859 -0.20743524 1.2590001 152 78 163 255
0.19304667 -0.20743524 1.2590001 152 78 163 255
0.19544476 -0.20743524 1.2590001 152 78 163 255
0.19784287 -0.20743524 1.2590001 152 78 163 255
0.19960478 -0.2067762 1.2550001 152 78 163 255
0.20199525 -0.2067762 1.2550001 152 78 163 255
0.20438574 -0.2067762 1.2550001 152 78 163 255
0.20743524 -0.20743524 1.2590001 152 78 163 255
0.20983334 -0.20743524 1.2590001 152 78 163 255
0.16973716 -0.20585144 1.2640001 152 78 163 255
0.17214477 -0.20585144 1.2640001 152 78 163 255
0.17386191 -0.20503716 1.2590001 152 78 163 255
0.17626001 -0.20503716 1.2590001 152 78 163 255
0.17809048 -0.20438574 1.2550001 152 78 163 255
0.18048097 -0.20438574 1.2550001 152 78 163 255
0.18287145 -0.20438574 1.2550001 152 78 163 255
0.18585238 -0.20503716 1.2590001 152 78 163 255
0.18825048 -0.20503716 1.2590001 152 78 163 255
0.19004287 -0.20438574 1.2550001 152 78 163 255
0.19243336 -0.20438574 1.2550001 152 78 163 255
0.19482383 -0.20438574 1.2550001 152 78 163 255
0.19721429 -0.20438574 1.2550001 152 78 163 255
0.19960478 -0.20438574 1.2550001 152 78 163 255
0.20199525 -0.20438574 1.2550001 152 78 163 255
0.20438574 -0.20438574 1.2550001 152 78 163 255
0.2067762 -0.20438574 1.2550001 152 78 163 255
0.20983334 -0.20503716 1.2590001 152 78 163 255
0.17214477 -0.20344383 1.2640001 152 78 163 255
0.17386191 -0.20263906 1.2590001 152 78 163 255
0.17626001 -0.20263906 1.2590001 152 78 163 255
0.17809048 -0.20199525 1.2550001 152 78 163 255
0.18048097 -0.20199525 1.2550001 152 78 163 255
0.18287145 -0.20199525 1.2550001 152 78 163 255
0.18526192 -0.20199525 1.2550001 152 78 163 255
0.18765239 -0.20199525 1.2550001 152 78 163 255
0.19004287 -0.20199525 1.2550001 152 78 163 255
0.19243336 -0.20199525 1.2550001 152 78 163 255
0.19482383 -0.20199525 1.2550001 152 78 163 255
0.19721429 -0.20199525 1.2550001 152 78 163 255
0.19960478 -0.20199525 1.2550001 152 78 163 255
0.20199525 -0.20199525 1.2550001 152 78 163 255
0.20438574 -0.20199525 1.2550001 152 78 163 255
0.2067762 -0.20199525 1.2550001 152 78 163 255
0.20983334 -0.20263906 1.2590001 152 78 163 255
0.17386191 -0.20024095 1.2590001 152 78 163 255
0.17626001 -0.20024095 1.2590001 152 78 163 255
0.17809048 -0.19960478 1.2550001 152 78 163 255
0.18048097 -0.19960478 1.2550001 152 78 163 255
0.18287145 -0.19960478 1.2550001 152 78 163 255
0.18526192 -0.19960478 1.2550001 152 78 163 255
0.18765239 -0.19960478 1.2550001 152 78 163 255
0.19004287 -0.19960478 1.2550001 152 78 163 255
0.19243336 -0.19960478 1.2550001 152 78 163 255
0.19482383 -0.19960478 1.2550001 152 78 163 255
0.19721429 -0.19960478 1.2550001 152 78 163 255
0.19960478 -0.19960478 1.2550001 152 78 163 255
0.20199525 -0.19960478 1.2550001 152 78 163 255
0.20438574 -0.19960478 1.2550001 152 78 163 255
0.2067762 -0.19960478 1.2550001 152 78 163 255
0.20983334 -0.20024095 1.2590001 152 78 163 255
0.17626001 -0.19784287 1.2590001 152 78 163 255
0.1786581 -0.19784287 1.2590001 152 78 163 255
0.1810562 -0.19784287 1.2590001 152 78 163 255
0.18345429 -0.19784287 1.2590001 152 78 163 255
0.18585238 -0.19784287 1.2590001 152 78 163 255
0.18825048 -0.19784287 1.2590001 152 78 163 255
0.19004287 -0.19721429 1.2550001 152 78 163 255
0.19243336 -0.19721429 1.2550001 152 78 163 255
0.19482383 -0.19721429 1.2550001 152 78 163 255
0.19721429 -0.19721429 1.2550001 152 78 163 255
0.19960478 -0.19721429 1.2550001 152 78 163 255
0.20199525 -0.19721429 1.2550001 152 78 163 255
0.20438574 -0.19721429 1.2550001 152 78 163 255
0.20743524 -0.19784287 1.2590001 152 78 163 255
0.17626001 -0.19544476 1.2590001 152 78 163 255
0.1786581 -0.19544476 1.2590001 152 78 163 255
0.1810562 -0.19544476 1.2590001 152 78 163 255
0.18345429 -0.19544476 1.2590001 152 78 163 255
0.18585238 -0.19544476 1.2590001 152 78 163 255
0.18825048 -0.19544476 1.2590001 152 78 163 255
0.19004287 -0.19482383 1.2550001 152 78 163 255
0.19243336 -0.19482383 1.2550001 152 78 163 255
0.19482383 -0.19482383 1.2550001 152 78 163 255
0.19721429 -0.19482383 1.2550001 152 78 163 255
0.19960478 -0.19482383 1.2550001 152 78 163 255
0.20199525 -0.19482383 1.2550001 152 78 163 255
0.20438574 -0.19482383 1.2550001 152 78 163 255
0.20743524 -0.19544476 1.2590001 152 78 163 255
0.19064859 -0.19304667 1.2590001 152 78 163 255
0.19304667 -0.19304667 1.2590001 152 78 163 255
0.19544476 -0.19304667 1.2590001 152 78 163 255
0.19784287 -0.19304667 1.2590001 152 78 163 255
0.20024095 -0.19304667 1.2590001 152 78 163 255
0.20263906 -0.19304667 1.2590001 152 78 163 255
0.20503716 -0.19304667 1.2590001 152 78 163 255
0.19544476 -0.19064859 1.2590001 152 78 163 255
0.19784287 -0.19064859 1.2590001 152 78 163 255
0.20024095 -0.19064859 1.2590001 152 78 163 255
0.20263906 -0.19064859 1.2590001 152 78 163 255
0.20503716 -0.19064859 1.2590001 152 78 163 255
0 0 0 1 0 0 0 1 0 0 0 1 0 0 0 0 0 765 1 0 0
