ply
format ascii 1.0
comment PCL generated
element vertex 105
property float x
property float y
property float z
property uchar red
property uchar green
property uchar blue
property uchar alpha
element camera 1
property float view_px
property float view_py
property float view_pz
property float x_axisx
property float x_axisy
property float x_axisz
property float y_axisx
property float y_axisy
property float y_axisz
property float z_axisx
property float z_axisy
property float z_axisz
property float focal
property float scalex
property float scaley
property float centerx
property float centery
property int viewportx
property int viewporty
property float k1
property float k2
end_header
-0.1466981 0.0036371427 1.273 255 0 255 255
-0.14427333 0.0036371427 1.273 255 0 255 255
-0.14184856 0.0036371427 1.273 255 0 255 255
-0.1466981 0.0060619046 1.273 255 0 255 255
-0.14427333 0.0060619046 1.273 255 0 255 255
-0.14184856 0.0060619046 1.273 255 0 255 255
-0.13942382 0.0060619046 1.273 255 0 255 255
-0.13699904 0.0060619046 1.273 255 0 255 255
-0.14912285 0.0084866667 1.273 255 0 255 255
-0.1466981 0.0084866667 1.273 255 0 255 255
-0.14427333 0.0084866667 1.273 255 0 255 255
-0.14184856 0.0084866667 1.273 255 0 255 255
-0.13457428 0.0084866667 1.273 255 0 255 255
-0.13214953 0.0084866667 1.273 255 0 255 255
-0.12972476 0.0084866667 1.273 255 0 255 255
-0.14427333 0.010911428 1.273 255 0 255 255
-0.14184856 0.010911428 1.273 255 0 255 255
-0.13457428 0.010911428 1.273 255 0 255 255
-0.13214953 0.010911428 1.273 255 0 255 255
-0.12972476 0.010911428 1.273 255 0 255 255
-0.12729999 0.010911428 1.273 255 0 255 255
-0.12487524 0.010911428 1.273 255 0 255 255
-0.12245047 0.010911428 1.273 255 0 255 255
-0.14427333 0.013336191 1.273 255 0 255 255
-0.14184856 0.013336191 1.273 255 0 255 255
-0.13942382 0.013336191 1.273 255 0 255 255
-0.13699904 0.013336191 1.273 255 0 255 255
-0.13457428 0.013336191 1.273 255 0 255 255
-0.13214953 0.013336191 1.273 255 0 255 255
-0.12972476 0.013336191 1.273 255 0 255 255
-0.12729999 0.013336191 1.273 255 0 255 255
-0.12487524 0.013336191 1.273 255 0 255 255
-0.12245047 0.013336191 1.273 255 0 255 255
-0.12002572 0.013336191 1.273 255 0 255 255
-0.11760096 0.013336191 1.273 255 0 255 255
-0.11517619 0.013336191 1.273 255 0 255 255
-0.13699904 0.015760953 1.273 255 0 255 255
-0.13457428 0.015760953 1.273 255 0 255 255
-0.13214953 0.015760953 1.273 255 0 255 255
-0.12972476 0.015760953 1.273 255 0 255 255
-0.12729999 0.015760953 1.273 255 0 255 255
-0.12487524 0.015760953 1.273 255 0 255 255
-0.12245047 0.015760953 1.273 255 0 255 255
-0.12002572 0.015760953 1.273 255 0 255 255
-0.11760096 0.015760953 1.273 255 0 255 255
-0.11517619 0.015760953 1.273 255 0 255 255
-0.13457428 0.018185714 1.273 255 0 255 255
-0.13214953 0.018185714 1.273 255 0 255 255
-0.12487524 0.018185714 1.273 255 0 255 255
-0.12245047 0.018185714 1.273 255 0 255 255
-0.12002572 0.018185714 1.273 255 0 255 255
-0.11760096 0.018185714 1.273 255 0 255 255
-0.11517619 0.018185714 1.273 255 0 255 255
-0.13214953 0.020610476 1.273 255 0 255 255
-0.12487524 0.020610476 1.273 255 0 255 255
-0.12245047 0.020610476 1.273 255 0 255 255
-0.12002572 0.020610476 1.273 255 0 255 255
-0.12487524 0.023035238 1.273 255 0 255 255
-0.12245047 0.023035238 1.273 255 0 255 255
-0.12002572 0.023035238 1.273 255 0 255 255
-0.12487524 0.025459999 1.273 255 0 255 255
-0.12245047 0.025459999 1.273 255 0 255 255
-0.12002572 0.025459999 1.273 255 0 255 255
-0.11760096 0.025459999 1.273 255 0 255 255
-0.12245047 0.027884761 1.273 255 0 255 255
-0.12002572 0.027884761 1.273 255 0 255 255
-0.13404572 0.037436187 1.268 255 0 255 255
-0.13404572 0.039851431 1.268 255 0 255 255
-0.13163048 0.039851431 1.268 255 0 255 255
-0.12921523 0.039851431 1.268 255 0 255 255
-0.13646095 0.042266667 1.268 255 0 255 255
-0.13457428 0.042433333 1.273 255 0 255 255
-0.13163048 0.042266667 1.268 255 0 255 255
-0.12921523 0.042266667 1.268 255 0 255 255
-0.1268 0.042266667 1.268 255 0 255 255
-0.12438476 0.042266667 1.268 255 0 255 255
-0.12196951 0.042266667 1.268 255 0 255 255
-0.13404572 0.044681903 1.268 255 0 255 255
-0.13163048 0.044681903 1.268 255 0 255 255
-0.12921523 0.044681903 1.268 255 0 255 255
-0.1268 0.044681903 1.268 255 0 255 255
-0.12438476 0.044681903 1.268 255 0 255 255
-0.12196951 0.044681903 1.268 255 0 255 255
-0.11955428 0.044681903 1.268 255 0 255 255
-0.11713905 0.044681903 1.268 255 0 255 255
-0.11472381 0.044681903 1.268 255 0 255 255
-0.13404572 0.047097143 1.268 255 0 255 255
-0.13163048 0.047097143 1.268 255 0 255 255
-0.12921523 0.047097143 1.268 255 0 255 255
-0.1268 0.047097143 1.268 255 0 255 255
-0.12438476 0.047097143 1.268 255 0 255 255
-0.12196951 0.047097143 1.268 255 0 255 255
-0.11955428 0.047097143 1.268 255 0 255 255
-0.11713905 0.047097143 1.268 255 0 255 255
-0.11472381 0.047097143 1.268 255 0 255 255
-0.11230858 0.047097143 1.268 255 0 255 255
-0.13404572 0.049512379 1.268 255 0 255 255
-0.13163048 0.049512379 1.268 255 0 255 255
-0.12921523 0.049512379 1.268 255 0 255 255
-0.1268 0.049512379 1.268 255 0 255 255
-0.12438476 0.049512379 1.268 255 0 255 255
-0.12196951 0.049512379 1.268 255 0 255 255
-0.11955428 0.049512379 1.268 255 0 255 255
-0.11713905 0.049512379 1.268 255 0 255 255
-0.11472381 0.049512379 1.268 255 0 255 255
0 0 0 1 0 0 0 1 0 0 0 1 0 0 0 0 0 105 1 0 0
