ply
format ascii 1.0
comment PCL generated
element vertex 166
property float x
property float y
property float z
property uchar red
property uchar green
property uchar blue
property uchar alpha
element camera 1
property float view_px
property float view_py
property float view_pz
property float x_axisx
property float x_axisy
property float x_axisz
property float y_axisx
property float y_axisy
property float y_axisz
property float z_axisx
property float z_axisy
property float z_axisz
property float focal
property float scalex
property float scaley
property float centerx
property float centery
property int viewportx
property int viewporty
property float k1
property float k2
end_header
0.20976001 0.020853335 1.2880001 0 255 248 255
0.28177905 0.020918095 1.2920001 0 255 248 255
0.20795049 0.023379048 1.2920001 0 255 248 255
0.21041143 0.023379048 1.2920001 0 255 248 255
0.21287239 0.023379048 1.2920001 0 255 248 255
0.21466669 0.023306668 1.2880001 0 255 248 255
0.21712001 0.023306668 1.2880001 0 255 248 255
0.27439618 0.023379048 1.2920001 0 255 248 255
0.27685714 0.023379048 1.2920001 0 255 248 255
0.27931812 0.023379048 1.2920001 0 255 248 255
0.28177905 0.023379048 1.2920001 0 255 248 255
0.28424001 0.023379048 1.2920001 0 255 248 255
0.28670096 0.023379048 1.2920001 0 255 248 255
0.28916192 0.023379048 1.2920001 0 255 248 255
0.20795049 0.025840001 1.2920001 0 255 248 255
0.21041143 0.025840001 1.2920001 0 255 248 255
0.21221335 0.025760002 1.2880001 0 255 248 255
0.21466669 0.025760002 1.2880001 0 255 248 255
0.21712001 0.025760002 1.2880001 0 255 248 255
0.21957335 0.025760002 1.2880001 0 255 248 255
0.22202669 0.025760002 1.2880001 0 255 248 255
0.22448002 0.025760002 1.2880001 0 255 248 255
0.27193525 0.025840001 1.2920001 0 255 248 255
0.27439618 0.025840001 1.2920001 0 255 248 255
0.27685714 0.025840001 1.2920001 0 255 248 255
0.27931812 0.025840001 1.2920001 0 255 248 255
0.28177905 0.025840001 1.2920001 0 255 248 255
0.28424001 0.025840001 1.2920001 0 255 248 255
0.28670096 0.025840001 1.2920001 0 255 248 255
0.28916192 0.025840001 1.2920001 0 255 248 255
0.29162288 0.025840001 1.2920001 0 255 248 255
0.29408383 0.025840001 1.2920001 0 255 248 255
0.29654476 0.025840001 1.2920001 0 255 248 255
0.20548953 0.028300954 1.2920001 0 255 248 255
0.20730668 0.028213335 1.2880001 0 255 248 255
0.20976001 0.028213335 1.2880001 0 255 248 255
0.21221335 0.028213335 1.2880001 0 255 248 255
0.21466669 0.028213335 1.2880001 0 255 248 255
0.21712001 0.028213335 1.2880001 0 255 248 255
0.21957335 0.028213335 1.2880001 0 255 248 255
0.22202669 0.028213335 1.2880001 0 255 248 255
0.22448002 0.028213335 1.2880001 0 255 248 255
0.22693335 0.028213335 1.2880001 0 255 248 255
0.27193525 0.028300954 1.2920001 0 255 248 255
0.27439618 0.028300954 1.2920001 0 255 248 255
0.27685714 0.028300954 1.2920001 0 255 248 255
0.27931812 0.028300954 1.2920001 0 255 248 255
0.28177905 0.028300954 1.2920001 0 255 248 255
0.28424001 0.028300954 1.2920001 0 255 248 255
0.28670096 0.028300954 1.2920001 0 255 248 255
0.28916192 0.028300954 1.2920001 0 255 248 255
0.29162288 0.028300954 1.2920001 0 255 248 255
0.29408383 0.028300954 1.2920001 0 255 248 255
0.29654476 0.028300954 1.2920001 0 255 248 255
0.20485336 0.03066667 1.2880001 0 255 248 255
0.20730668 0.03066667 1.2880001 0 255 248 255
0.20976001 0.03066667 1.2880001 0 255 248 255
0.21221335 0.03066667 1.2880001 0 255 248 255
0.21466669 0.03066667 1.2880001 0 255 248 255
0.21712001 0.03066667 1.2880001 0 255 248 255
0.21957335 0.03066667 1.2880001 0 255 248 255
0.22202669 0.03066667 1.2880001 0 255 248 255
0.22448002 0.03066667 1.2880001 0 255 248 255
0.27193525 0.030761907 1.2920001 0 255 248 255
0.27439618 0.030761907 1.2920001 0 255 248 255
0.27685714 0.030761907 1.2920001 0 255 248 255
0.27931812 0.030761907 1.2920001 0 255 248 255
0.28177905 0.030761907 1.2920001 0 255 248 255
0.28424001 0.030761907 1.2920001 0 255 248 255
0.28670096 0.030761907 1.2920001 0 255 248 255
0.28916192 0.030761907 1.2920001 0 255 248 255
0.29162288 0.030761907 1.2920001 0 255 248 255
0.20485336 0.033119999 1.2880001 0 255 248 255
0.20730668 0.033119999 1.2880001 0 255 248 255
0.20976001 0.033119999 1.2880001 0 255 248 255
0.21221335 0.033119999 1.2880001 0 255 248 255
0.21466669 0.033119999 1.2880001 0 255 248 255
0.21712001 0.033119999 1.2880001 0 255 248 255
0.21957335 0.033119999 1.2880001 0 255 248 255
0.22202669 0.033119999 1.2880001 0 255 248 255
0.22448002 0.033119999 1.2880001 0 255 248 255
0.27193525 0.033222858 1.2920001 0 255 248 255
0.27439618 0.033222858 1.2920001 0 255 248 255
0.27685714 0.033222858 1.2920001 0 255 248 255
0.27931812 0.033222858 1.2920001 0 255 248 255
0.28177905 0.033222858 1.2920001 0 255 248 255
0.28424001 0.033222858 1.2920001 0 255 248 255
0.28670096 0.033222858 1.2920001 0 255 248 255
0.20976001 0.035573337 1.2880001 0 255 248 255
0.21221335 0.035573337 1.2880001 0 255 248 255
0.21466669 0.035573337 1.2880001 0 255 248 255
0.21712001 0.035573337 1.2880001 0 255 248 255
0.21957335 0.035573337 1.2880001 0 255 248 255
0.22202669 0.035573337 1.2880001 0 255 248 255
0.22448002 0.035573337 1.2880001 0 255 248 255
0.24410668 0.035573337 1.2880001 0 255 248 255
0.24656002 0.035573337 1.2880001 0 255 248 255
0.24901335 0.035573337 1.2880001 0 255 248 255
0.25146666 0.035573337 1.2880001 0 255 248 255
0.27193525 0.035683811 1.2920001 0 255 248 255
0.27439618 0.035683811 1.2920001 0 255 248 255
0.27685714 0.035683811 1.2920001 0 255 248 255
0.27931812 0.035683811 1.2920001 0 255 248 255
0.28177905 0.035683811 1.2920001 0 255 248 255
0.28424001 0.035683811 1.2920001 0 255 248 255
0.28670096 0.035683811 1.2920001 0 255 248 255
0.24410668 0.038026668 1.2880001 0 255 248 255
0.24656002 0.038026668 1.2880001 0 255 248 255
0.24901335 0.038026668 1.2880001 0 255 248 255
0.25146666 0.038026668 1.2880001 0 255 248 255
0.25392002 0.038026668 1.2880001 0 255 248 255
0.25637335 0.038026668 1.2880001 0 255 248 255
0.2588267 0.038026668 1.2880001 0 255 248 255
0.27685714 0.038144764 1.2920001 0 255 248 255
0.27931812 0.038144764 1.2920001 0 255 248 255
0.28177905 0.038144764 1.2920001 0 255 248 255
0.28424001 0.038144764 1.2920001 0 255 248 255
0.28670096 0.038144764 1.2920001 0 255 248 255
0.24656002 0.040480006 1.2880001 0 255 248 255
0.24901335 0.040480006 1.2880001 0 255 248 255
0.25146666 0.040480006 1.2880001 0 255 248 255
0.25392002 0.040480006 1.2880001 0 255 248 255
0.25637335 0.040480006 1.2880001 0 255 248 255
0.2588267 0.040480006 1.2880001 0 255 248 255
0.26128003 0.040480006 1.2880001 0 255 248 255
0.26373336 0.040480006 1.2880001 0 255 248 255
0.26618668 0.040480006 1.2880001 0 255 248 255
0.24656002 0.042933334 1.2880001 0 255 248 255
0.24901335 0.042933334 1.2880001 0 255 248 255
0.25146666 0.042933334 1.2880001 0 255 248 255
0.25392002 0.042933334 1.2880001 0 255 248 255
0.25637335 0.042933334 1.2880001 0 255 248 255
0.2588267 0.042933334 1.2880001 0 255 248 255
0.26128003 0.042933334 1.2880001 0 255 248 255
0.26373336 0.042933334 1.2880001 0 255 248 255
0.26618668 0.042933334 1.2880001 0 255 248 255
0.26864001 0.042933334 1.2880001 0 255 248 255
0.27109334 0.042933334 1.2880001 0 255 248 255
0.2735467 0.042933334 1.2880001 0 255 248 255
0.24410668 0.045386672 1.2880001 0 255 248 255
0.24656002 0.045386672 1.2880001 0 255 248 255
0.25392002 0.045386672 1.2880001 0 255 248 255
0.25637335 0.045386672 1.2880001 0 255 248 255
0.2588267 0.045386672 1.2880001 0 255 248 255
0.26128003 0.045386672 1.2880001 0 255 248 255
0.26373336 0.045386672 1.2880001 0 255 248 255
0.26618668 0.045386672 1.2880001 0 255 248 255
0.26864001 0.045386672 1.2880001 0 255 248 255
0.27109334 0.045386672 1.2880001 0 255 248 255
0.2735467 0.045386672 1.2880001 0 255 248 255
0.27600002 0.045386672 1.2880001 0 255 248 255
0.27845338 0.045386672 1.2880001 0 255 248 255
0.28090668 0.045386672 1.2880001 0 255 248 255
0.24410668 0.047840003 1.2880001 0 255 248 255
0.24656002 0.047840003 1.2880001 0 255 248 255
0.25392002 0.047840003 1.2880001 0 255 248 255
0.25637335 0.047840003 1.2880001 0 255 248 255
0.2588267 0.047840003 1.2880001 0 255 248 255
0.26128003 0.047840003 1.2880001 0 255 248 255
0.26373336 0.047840003 1.2880001 0 255 248 255
0.26618668 0.047840003 1.2880001 0 255 248 255
0.26864001 0.047840003 1.2880001 0 255 248 255
0.27109334 0.047840003 1.2880001 0 255 248 255
0.2735467 0.047840003 1.2880001 0 255 248 255
0.27600002 0.047840003 1.2880001 0 255 248 255
0.27845338 0.047840003 1.2880001 0 255 248 255
0 0 0 1 0 0 0 1 0 0 0 1 0 0 0 0 0 166 1 0 0
